<?xml version="1.0" encoding="UTF-8"?>
<svg xmlns="http://www.w3.org/2000/svg" xmlns:xlink="http://www.w3.org/1999/xlink" viewBox="0 0 113 92">
  <defs>
    <clipPath id="b">
      <rect width="162.53" height="89.68" style="fill: none; stroke-width: 0px;"/>
    </clipPath>
  </defs>
  <g id="a" data-name="background">
    <g style="clip-path: url(#b);">
      <path d="M15.62,5.27c-4.93,0-8.93,4.05-8.93,9.04v65.58c0,4.99,4,9.04,8.93,9.04h79.31c4.93,0,8.93-4.05,8.93-9.04V14.31c0-4.99-4-9.04-8.93-9.04H15.62Z" style="fill: #84bf85; stroke-width: 0px;"/>
    </g>
  </g>
  <g id="c" data-name="text">
    <g>
      <path d="M40.17,61.2c0,.24-.06.36-.3.48-1.79.72-3.99.84-6.19.84-9.28,0-14.64-6.57-14.64-15.25s6.19-15.55,15.59-15.55c2.74,0,4.28.3,5.24.66.24.12.3.3.3.66l-.06,5.06c0,.36-.18.36-.42.3-1.19-.48-2.68-.72-4.88-.72-5.24,0-8.93,3.31-8.93,9.28,0,6.87,4.52,9.46,9.05,9.46,2.02,0,3.69-.18,4.82-.6.3-.06.42.06.42.3v5.06Z" style="fill: #393939; stroke-width: 0px;"/>
      <path d="M56.83,37.28c-3.1,0-4.17,1.45-4.17,2.77s.83,2.35,4.7,4.04c6.31,2.59,8.51,5.24,8.51,9.4,0,5.72-4.4,9.04-11.19,9.04-3.39,0-6.31-.6-8.03-1.63-.24-.12-.36-.3-.36-.6v-5.42c0-.3.24-.42.42-.3,2.5,1.63,5.53,2.35,8.09,2.35,3.09,0,4.52-1.21,4.52-2.89,0-1.51-1.01-2.59-4.76-4.22-6.01-2.41-8.27-5.06-8.27-9.34,0-4.64,3.69-8.74,10.65-8.74,3.27,0,5.77.54,7.08,1.21.3.18.36.42.36.72v4.94c0,.36-.24.54-.54.36-1.79-.96-4.46-1.69-7.02-1.69Z" style="fill: #393939; stroke-width: 0px;"/>
      <path d="M82.18,37.28c-3.09,0-4.17,1.45-4.17,2.77s.83,2.35,4.7,4.04c6.31,2.59,8.51,5.24,8.51,9.4,0,5.72-4.4,9.04-11.19,9.04-3.39,0-6.31-.6-8.03-1.63-.24-.12-.36-.3-.36-.6v-5.42c0-.3.24-.42.42-.3,2.5,1.63,5.53,2.35,8.09,2.35,3.09,0,4.52-1.21,4.52-2.89,0-1.51-1.01-2.59-4.76-4.22-6.01-2.41-8.27-5.06-8.27-9.34,0-4.64,3.69-8.74,10.65-8.74,3.27,0,5.77.54,7.08,1.21.3.18.36.42.36.72v4.94c0,.36-.24.54-.54.36-1.79-.96-4.46-1.69-7.02-1.69Z" style="fill: #393939; stroke-width: 0px;"/>
    </g>
  </g>
</svg>