<?xml version="1.0" encoding="UTF-8"?>
<svg id="b" data-name="text" xmlns="http://www.w3.org/2000/svg" xmlns:xlink="http://www.w3.org/1999/xlink" viewBox="0 0 113 92">
  <defs>
    <clipPath id="c">
      <rect width="144.68" height="89.68" style="fill: none; stroke-width: 0px;"/>
    </clipPath>
  </defs>
  <g style="clip-path: url(#c);">
    <path d="M15.99,5.27c-5.05,0-9.14,4.05-9.14,9.04v65.58c0,4.99,4.09,9.04,9.14,9.04h81.18c5.05,0,9.14-4.05,9.14-9.04V14.31c0-4.99-4.09-9.04-9.14-9.04H15.99Z" style="fill: #59c5d7; stroke-width: 0px;"/>
  </g>
  <g>
    <path d="M27.05,58.45c-.18,0-.26-.07-.26-.29v-10.16h-9.83v10.16c0,.18-.07.29-.29.29h-3.51c-.22,0-.29-.07-.29-.29v-23.06c0-.22.07-.29.29-.29h3.51c.22,0,.29.07.29.25v9.25h9.83v-9.25c0-.18.07-.25.26-.25h3.62c.15,0,.22.07.22.25v23.1c0,.22-.04.29-.26.29h-3.58Z" style="fill: #393939; stroke-width: 0px;"/>
    <path d="M41.93,38.5h-7.05c-.18,0-.22-.11-.18-.29l.44-3.14c.04-.18.11-.25.33-.25h17.21c.22,0,.29.07.33.29l.33,3.07c.04.22-.07.33-.26.33h-7.02v19.63c0,.22-.11.33-.29.33h-3.51c-.22.04-.33-.07-.33-.29v-19.66Z" style="fill: #393939; stroke-width: 0px;"/>
    <path d="M57.79,34.81h5.44c.22,0,.26.04.33.22,1.06,3.58,4.2,14.46,4.9,17.86h.04c.77-3.11,4.35-14.17,5.45-17.82.04-.18.11-.25.29-.25h5.3c.18,0,.22.04.26.22l.99,23.13c.04.22-.07.29-.26.29h-3.73c-.18,0-.26-.04-.26-.25-.22-7.77-.29-18.18-.26-20.35h-.07c-.77,3.33-4.46,15.44-5.92,20.35-.04.22-.18.25-.33.25h-3.4c-.22,0-.29-.04-.33-.25-1.54-5.49-4.42-16.19-5.41-20.39h-.07c0,3.36-.37,12.72-.69,20.39,0,.22-.07.25-.29.25h-3.36c-.22,0-.29-.04-.26-.25l1.39-23.17c0-.22.11-.22.26-.22Z" style="fill: #393939; stroke-width: 0px;"/>
    <path d="M87.06,58.45c-.25,0-.29-.11-.29-.36v-22.99c0-.18.04-.29.26-.29h3.62c.18,0,.22.07.22.25v19.7h10.31c.18,0,.26.11.22.25l-.55,3.18c-.04.22-.18.25-.33.25h-13.45Z" style="fill: #393939; stroke-width: 0px;"/>
  </g>
</svg>