<?xml version="1.0" encoding="UTF-8"?>
<svg xmlns="http://www.w3.org/2000/svg" xmlns:xlink="http://www.w3.org/1999/xlink" viewBox="0 0 113 92">
  <defs>
    <clipPath id="b">
      <rect width="155.79" height="89.68" style="fill: none; stroke-width: 0px;"/>
    </clipPath>
  </defs>
  <g id="a" data-name="background">
    <g style="clip-path: url(#b);">
      <path d="M16.05,5.27c-5.06,0-9.17,4.05-9.17,9.04v65.58c0,4.99,4.11,9.04,9.17,9.04h81.5c5.06,0,9.17-4.05,9.17-9.04V14.31c0-4.99-4.11-9.04-9.17-9.04H16.05Z" style="fill: #f39d1e; stroke-width: 0px;"/>
    </g>
  </g>
  <g id="c" data-name="text">
    <g>
      <path d="M50.84,68.86c0,.41-.14.54-.5.54h-7.03c-.43,0-.5-.14-.5-.54V25.55c0-.41.14-.47.5-.47h7.03c.36,0,.5.14.5.47v43.31Z" style="fill: #393939; stroke-width: 0px;"/>
      <path d="M62.24,21.89c0-.34.14-.47.57-.47h6.89c.43,0,.57.14.57.47v39.18c0,2.03.79,2.64,2.37,2.64.57,0,.79,0,1.29-.07.29,0,.36.07.36.41v4.81c0,.41-.07.54-.43.68-.79.34-2.08.54-3.88.54-4.23,0-7.75-1.49-7.75-8.34V21.89Z" style="fill: #393939; stroke-width: 0px;"/>
    </g>
    <g>
      <path d="M20.45,80.03l-.76,2.14s-.04.06-.09.06h-.74c-.06,0-.08-.02-.07-.08l2.32-6.38c.03-.08.06-.16.07-.42,0-.03.02-.05.06-.05h1.07s.06,0,.07.05l2.5,6.81s0,.07-.04.07h-.83s-.07-.02-.09-.05l-.77-2.15h-2.7ZM22.91,79.25c-.23-.71-.9-2.52-1.11-3.25h-.01c-.18.69-.69,2.08-1.09,3.25h2.21Z" style="fill: #393939; stroke-width: 0px;"/>
      <path d="M25.6,79.72c0-1.55,1.17-2.7,2.93-2.7.29,0,.45.02.65.05v-2.29s.02-.06.07-.06h.79s.06.02.06.05v6.62c0,.15,0,.32.02.5,0,.04-.01.05-.06.07-.6.27-1.2.37-1.79.37-1.52,0-2.67-.88-2.67-2.61ZM29.17,77.86c-.17-.07-.4-.11-.68-.11-1.22,0-1.97.81-1.97,1.92,0,1.38.88,1.9,1.82,1.9.28,0,.59-.02.83-.12v-3.6Z" style="fill: #393939; stroke-width: 0px;"/>
      <path d="M36.33,79.67c0,1.6-.98,2.67-2.42,2.67-1.73,0-2.46-1.36-2.46-2.66,0-1.51.96-2.66,2.46-2.66s2.42,1.1,2.42,2.65ZM32.36,79.67c0,1.08.56,1.93,1.56,1.93.76,0,1.49-.59,1.49-1.91,0-1-.45-1.93-1.55-1.93-.88,0-1.5.73-1.5,1.91Z" style="fill: #393939; stroke-width: 0px;"/>
      <path d="M38.53,74.72s.07.01.07.06v2.42c.33-.13.71-.19,1.14-.19,1.49,0,2.45,1.01,2.45,2.46,0,1.9-1.45,2.86-2.97,2.86-.54,0-.99-.05-1.46-.2-.03-.01-.06-.05-.06-.08v-7.26s.01-.06.07-.06h.77ZM39.59,77.77c-.44,0-.73.07-.98.18v3.57c.2.05.4.07.68.07,1.03,0,1.97-.67,1.98-2.06,0-1.12-.67-1.77-1.68-1.77Z" style="fill: #393939; stroke-width: 0px;"/>
      <path d="M44.15,79.77c-.01,1.04.57,1.81,1.79,1.81.46,0,.9-.07,1.31-.26.04-.02.07-.01.07.04v.59c0,.05-.02.07-.06.1-.36.18-.84.28-1.49.28-1.85,0-2.54-1.3-2.54-2.6,0-1.5.88-2.71,2.37-2.71s2.08,1.2,2.08,2.09c0,.26-.01.45-.03.55-.01.04-.03.07-.09.07-.16.02-.63.04-1.15.04h-2.26ZM46.12,79.12c.54,0,.66-.01.69-.02.01-.03.01-.1.01-.13,0-.38-.25-1.24-1.25-1.24-.88,0-1.31.69-1.41,1.39h1.95Z" style="fill: #393939; stroke-width: 0px;"/>
      <path d="M52.71,82.16c0,.05-.02.07-.08.07h-.76c-.06,0-.08-.02-.08-.07v-6.79c0-.05.02-.07.08-.07h.77s.07.02.07.06v6.8Z" style="fill: #393939; stroke-width: 0px;"/>
      <path d="M54.51,74.78s.02-.06.08-.06h.76c.06,0,.08.02.08.06v6.36c0,.38.16.47.41.47.08,0,.12-.01.21-.03.03,0,.04,0,.04.05v.55c0,.05-.01.06-.06.08-.1.04-.28.07-.5.07-.51,0-1.03-.18-1.03-1.14v-6.42Z" style="fill: #393939; stroke-width: 0px;"/>
      <path d="M57.33,74.78s.02-.06.08-.06h.76c.06,0,.08.02.08.06v6.36c0,.38.16.47.41.47.08,0,.12-.01.21-.03.03,0,.04,0,.04.05v.55c0,.05-.01.06-.06.08-.1.04-.28.07-.5.07-.51,0-1.03-.18-1.03-1.14v-6.42Z" style="fill: #393939; stroke-width: 0px;"/>
      <path d="M64.26,81.14c0,.52.03.81.06,1.03.01.04-.01.06-.07.06h-.69s-.07-.01-.08-.05c-.03-.12-.07-.29-.07-.43-.45.43-1.02.58-1.55.58-.89,0-1.76-.41-1.76-1.91v-3.24c0-.05.01-.07.07-.07h.77c.06,0,.07.02.07.06v3.14c0,.79.39,1.25,1.13,1.25.5,0,.9-.18,1.22-.52v-3.88s.02-.06.08-.06h.77c.06,0,.07.02.07.06v3.96Z" style="fill: #393939; stroke-width: 0px;"/>
      <path d="M67.53,77.74c-.7,0-.95.34-.95.64,0,.33.19.55,1,.88,1.08.42,1.52.85,1.52,1.59,0,.97-.84,1.49-1.93,1.49-.6,0-1.13-.12-1.44-.28-.04-.03-.06-.05-.06-.1v-.71s.03-.06.07-.04c.42.28.97.4,1.44.4.69,0,1.03-.29,1.03-.69,0-.37-.24-.6-.99-.93-1.05-.4-1.51-.82-1.51-1.56s.67-1.41,1.84-1.41c.59,0,1.03.09,1.25.21.04.03.04.06.04.11v.64c0,.05-.02.07-.08.05-.3-.18-.79-.29-1.24-.29Z" style="fill: #393939; stroke-width: 0px;"/>
      <path d="M72.73,82.1s0,.07-.06.09c-.25.11-.51.14-.8.14-.8,0-1.27-.37-1.27-1.35v-3.12h-.74c-.06,0-.07-.03-.07-.08v-.59c0-.05.01-.07.07-.07h.74c.01-.39.06-1.11.1-1.33.01-.05.03-.06.07-.07l.75-.12s.07,0,.07.04c-.03.35-.07.94-.07,1.48h1.14s.07.02.07.07v.61s-.02.05-.07.06h-1.15v3c0,.47.19.75.67.75.16,0,.31-.02.5-.08.03,0,.06,0,.06.05v.53Z" style="fill: #393939; stroke-width: 0px;"/>
      <path d="M74.6,77.11c.06,0,.08.02.09.06.04.13.08.49.09.71.38-.49,1.05-.86,1.74-.86.04,0,.07,0,.07.06v.76s-.01.05-.08.05c-.74-.01-1.41.34-1.69.74v3.54c0,.05-.02.06-.08.06h-.77c-.06,0-.07-.02-.07-.07v-3.65c0-.46-.02-1.04-.06-1.34-.01-.04,0-.06.06-.06h.69Z" style="fill: #393939; stroke-width: 0px;"/>
      <path d="M81.14,78.96v2.42c0,.18,0,.33.02.5,0,.01,0,.03-.02.04-.75.33-1.35.42-2,.42-1.16,0-2.01-.56-2.01-1.63s1.07-1.61,2.4-1.61c.38,0,.6.01.71.02v-.27c0-.34-.15-1.05-1.2-1.05-.51,0-.98.12-1.36.31-.03.01-.07,0-.07-.05v-.62s.01-.06.06-.08c.4-.19.94-.31,1.52-.31,1.37,0,1.94.85,1.94,1.94ZM80.24,79.79c-.15-.02-.37-.03-.68-.03-1.04,0-1.54.34-1.54.94,0,.46.32.94,1.27.94.36,0,.66-.05.95-.17v-1.68Z" style="fill: #393939; stroke-width: 0px;"/>
      <path d="M85.05,82.1s0,.07-.06.09c-.25.11-.51.14-.8.14-.8,0-1.27-.37-1.27-1.35v-3.12h-.74c-.06,0-.07-.03-.07-.08v-.59c0-.05.01-.07.07-.07h.74c.01-.39.06-1.11.1-1.33.01-.05.03-.06.07-.07l.75-.12s.07,0,.07.04c-.03.35-.07.94-.07,1.48h1.14s.07.02.07.07v.61s-.02.05-.07.06h-1.15v3c0,.47.19.75.67.75.16,0,.31-.02.5-.08.03,0,.06,0,.06.05v.53Z" style="fill: #393939; stroke-width: 0px;"/>
      <path d="M90.69,79.67c0,1.6-.98,2.67-2.42,2.67-1.73,0-2.46-1.36-2.46-2.66,0-1.51.96-2.66,2.46-2.66s2.42,1.1,2.42,2.65ZM86.73,79.67c0,1.08.56,1.93,1.56,1.93.76,0,1.49-.59,1.49-1.91,0-1-.45-1.93-1.55-1.93-.88,0-1.5.73-1.5,1.91Z" style="fill: #393939; stroke-width: 0px;"/>
      <path d="M92.74,77.11c.06,0,.08.02.09.06.04.13.08.49.09.71.38-.49,1.05-.86,1.74-.86.04,0,.07,0,.07.06v.76s-.01.05-.08.05c-.74-.01-1.41.34-1.69.74v3.54c0,.05-.02.06-.08.06h-.77c-.06,0-.07-.02-.07-.07v-3.65c0-.46-.02-1.04-.06-1.34-.01-.04,0-.06.06-.06h.69Z" style="fill: #393939; stroke-width: 0px;"/>
    </g>
  </g>
</svg>