<?xml version="1.0" encoding="UTF-8"?>
<svg id="b" data-name="text" xmlns="http://www.w3.org/2000/svg" xmlns:xlink="http://www.w3.org/1999/xlink" viewBox="0 0 113 92">
  <defs>
    <clipPath id="c">
      <rect width="162.53" height="89.68" style="fill: none; stroke-width: 0px;"/>
    </clipPath>
  </defs>
  <g style="clip-path: url(#c);">
    <rect x="6.78" y="5.27" width="98.38" height="83.66" rx="9.04" ry="9.04" style="fill: #ac82b2; stroke-width: 0px;"/>
  </g>
  <g>
    <path d="M23.65,80.25l-.72,2.14s-.04.06-.08.06h-.7c-.05,0-.07-.02-.06-.08l2.19-6.38c.03-.08.05-.16.06-.42,0-.03.02-.05.05-.05h1.01s.05,0,.06.05l2.36,6.81s0,.07-.04.07h-.78s-.06-.02-.08-.05l-.73-2.15h-2.55ZM25.97,79.47c-.22-.71-.85-2.52-1.04-3.25h-.01c-.17.69-.65,2.08-1.03,3.25h2.09Z" style="fill: #393939; stroke-width: 0px;"/>
    <path d="M28.52,79.94c0-1.55,1.11-2.7,2.76-2.7.27,0,.42.02.61.05v-2.29s.02-.06.06-.06h.75s.05.02.05.05v6.62c0,.15,0,.32.02.5,0,.04-.01.05-.05.07-.57.27-1.13.37-1.69.37-1.43,0-2.52-.88-2.52-2.61ZM31.89,78.08c-.16-.07-.38-.11-.64-.11-1.15,0-1.86.81-1.86,1.92,0,1.38.83,1.9,1.72,1.9.26,0,.56-.02.78-.12v-3.6Z" style="fill: #393939; stroke-width: 0px;"/>
    <path d="M38.65,79.88c0,1.6-.93,2.67-2.29,2.67-1.63,0-2.32-1.36-2.32-2.66,0-1.51.91-2.66,2.32-2.66s2.29,1.1,2.29,2.65ZM34.9,79.88c0,1.08.53,1.93,1.48,1.93.72,0,1.4-.59,1.4-1.91,0-1-.42-1.93-1.47-1.93-.83,0-1.41.73-1.41,1.91Z" style="fill: #393939; stroke-width: 0px;"/>
    <path d="M40.73,74.94s.06.01.06.06v2.42c.32-.13.67-.19,1.08-.19,1.4,0,2.31,1.01,2.31,2.46,0,1.9-1.37,2.86-2.8,2.86-.51,0-.94-.05-1.38-.2-.03-.01-.05-.05-.05-.08v-7.26s.01-.06.06-.06h.73ZM41.73,77.98c-.41,0-.69.07-.93.18v3.57c.19.05.38.07.64.07.97,0,1.86-.67,1.87-2.06,0-1.12-.63-1.77-1.58-1.77Z" style="fill: #393939; stroke-width: 0px;"/>
    <path d="M46.04,79.99c-.01,1.04.54,1.81,1.69,1.81.43,0,.85-.07,1.23-.26.04-.02.06-.01.06.04v.59c0,.05-.02.07-.05.1-.34.18-.79.28-1.4.28-1.75,0-2.39-1.3-2.39-2.6,0-1.5.83-2.71,2.24-2.71s1.96,1.2,1.96,2.09c0,.26-.01.45-.03.55-.01.04-.03.07-.08.07-.15.02-.59.04-1.09.04h-2.13ZM47.89,79.33c.51,0,.62-.01.65-.02.01-.03.01-.1.01-.13,0-.38-.23-1.24-1.18-1.24-.83,0-1.23.69-1.33,1.39h1.85Z" style="fill: #393939; stroke-width: 0px;"/>
    <path d="M54.13,82.38c0,.05-.02.07-.07.07h-.72c-.05,0-.07-.02-.07-.07v-6.79c0-.05.02-.07.07-.07h.73s.06.02.06.06v6.8Z" style="fill: #393939; stroke-width: 0px;"/>
    <path d="M55.81,78.52c0-.36-.02-.95-.03-1.13-.01-.04.01-.06.06-.06h.63s.07.02.08.06c.03.09.05.28.06.5.44-.43.97-.65,1.55-.65.71,0,1.64.35,1.64,1.97v3.17c0,.05-.03.07-.07.07h-.72c-.05,0-.07-.02-.07-.07v-3.1c0-.76-.33-1.29-1.03-1.29-.51,0-.93.23-1.24.62v3.76c0,.05-.02.07-.06.07h-.73c-.05,0-.07-.02-.07-.07v-3.86Z" style="fill: #393939; stroke-width: 0px;"/>
    <path d="M61.47,75.61c0-.05.01-.07.06-.08.26,0,.8-.03,1.75-.03,2.29,0,3.52,1.37,3.52,3.36,0,2.71-1.96,3.62-3.62,3.62-.57,0-1.32-.01-1.66-.02-.04,0-.06-.03-.06-.08v-6.76ZM62.34,81.7c.19,0,.53.02.83.02,1.58,0,2.75-.92,2.75-2.84,0-1.78-1.14-2.63-2.65-2.63-.34,0-.67.01-.94.02v5.42Z" style="fill: #393939; stroke-width: 0px;"/>
    <path d="M68.74,79.99c0,1.04.54,1.81,1.69,1.81.43,0,.85-.07,1.23-.26.04-.02.06-.01.06.04v.59c0,.05-.02.07-.05.1-.34.18-.79.28-1.4.28-1.75,0-2.39-1.3-2.39-2.6,0-1.5.83-2.71,2.24-2.71s1.96,1.2,1.96,2.09c0,.26-.01.45-.03.55-.01.04-.03.07-.08.07-.15.02-.59.04-1.09.04h-2.13ZM70.6,79.33c.51,0,.62-.01.65-.02.01-.03.01-.1.01-.13,0-.38-.23-1.24-1.18-1.24-.83,0-1.23.69-1.33,1.39h1.85Z" style="fill: #393939; stroke-width: 0px;"/>
    <path d="M74.83,77.95c-.66,0-.9.34-.9.64,0,.33.18.55.95.88,1.02.42,1.43.85,1.43,1.59,0,.97-.79,1.49-1.82,1.49-.57,0-1.07-.12-1.36-.28-.04-.03-.05-.05-.05-.1v-.71s.03-.06.06-.04c.4.28.92.4,1.36.4.65,0,.97-.29.97-.69,0-.37-.22-.6-.94-.93-.99-.4-1.42-.82-1.42-1.56s.63-1.41,1.74-1.41c.56,0,.97.09,1.18.21.04.03.04.06.04.11v.64c0,.05-.02.07-.07.05-.29-.18-.75-.29-1.17-.29Z" style="fill: #393939; stroke-width: 0px;"/>
    <path d="M77.49,75.8c0-.31.21-.53.52-.53.33,0,.52.22.52.53s-.21.53-.53.53-.51-.21-.51-.53ZM77.58,77.4c0-.05.01-.07.06-.07h.73c.05,0,.07.01.07.06v4.99c0,.05-.02.07-.07.07h-.72c-.05,0-.07-.02-.07-.07v-4.98Z" style="fill: #393939; stroke-width: 0px;"/>
    <path d="M81.12,80.69c-.05.13-.07.26-.05.39.01.16.07.31.18.43l1.02.05c1.29.06,1.99.54,1.99,1.46,0,1.03-.98,1.86-2.47,1.86s-2.26-.8-2.26-1.58c0-.36.28-.81,1-1.42-.17-.23-.25-.51-.25-.78,0-.24.06-.47.18-.67-.42-.29-.69-.77-.69-1.4,0-.99.71-1.78,1.9-1.78.31,0,.57.03.76.07.08.02.15.02.21.02h1.44s.05.02.05.06v.59s-.01.06-.05.06c-.27,0-.7-.02-.94-.03.18.19.36.53.36,1.01,0,1.16-.84,1.73-1.84,1.73-.19,0-.38-.02-.55-.06ZM82.09,82.33l-1.04-.05c-.42.3-.7.73-.7.96,0,.47.56.97,1.5.97,1.1,0,1.61-.54,1.61-1.06,0-.6-.62-.78-1.37-.81ZM81.67,77.89c-.63,0-1.05.44-1.05,1.11s.37,1.11,1.04,1.11,1.03-.4,1.03-1.1c0-.6-.32-1.12-1.02-1.12Z" style="fill: #393939; stroke-width: 0px;"/>
    <path d="M85.21,78.52c0-.36-.02-.95-.03-1.13-.01-.04.01-.06.06-.06h.63s.07.02.08.06c.03.09.05.28.06.5.44-.43.97-.65,1.55-.65.71,0,1.64.35,1.64,1.97v3.17c0,.05-.03.07-.07.07h-.72c-.05,0-.07-.02-.07-.07v-3.1c0-.76-.33-1.29-1.03-1.29-.51,0-.93.23-1.24.62v3.76c0,.05-.02.07-.06.07h-.73c-.05,0-.07-.02-.07-.07v-3.86Z" style="fill: #393939; stroke-width: 0px;"/>
  </g>
  <g>
    <path d="M41.33,69.07c0,.41-.14.54-.47.54h-6.64c-.41,0-.47-.14-.47-.54V25.76c0-.41.14-.47.47-.47h6.64c.34,0,.47.14.47.47v43.31Z" style="fill: #393939; stroke-width: 0px;"/>
    <path d="M50.07,53.21c0-9.83,7.05-17.62,18.37-17.62,1.08,0,1.76.07,2.85.2v-13.76c0-.27.14-.41.41-.41h6.85c.34,0,.41.14.41.34v41.01c0,1.29,0,2.85.2,4.2,0,.27-.07.41-.41.54-4.07,1.83-8.13,2.51-11.93,2.51-9.56,0-16.74-5.63-16.74-17.01ZM71.29,42.5c-.81-.27-1.9-.41-3.12-.41-5.96,0-10.3,4.07-10.3,10.78,0,7.66,4.34,10.71,9.62,10.71,1.29,0,2.64-.07,3.8-.54v-20.54Z" style="fill: #393939; stroke-width: 0px;"/>
  </g>
</svg>