<?xml version="1.0" encoding="UTF-8"?>
<svg id="b" data-name="text" xmlns="http://www.w3.org/2000/svg" xmlns:xlink="http://www.w3.org/1999/xlink" viewBox="0 0 113 92">
  <defs>
    <clipPath id="c">
      <rect width="162.53" height="89.68" style="fill: none; stroke-width: 0px;"/>
    </clipPath>
  </defs>
  <g style="clip-path: url(#c);">
    <path d="M16.17,5.27c-5.1,0-9.24,4.05-9.24,9.04v65.58c0,4.99,4.14,9.04,9.24,9.04h82.1c5.1,0,9.24-4.05,9.24-9.04V14.31c0-4.99-4.14-9.04-9.24-9.04H16.17Z" style="fill: #fff682; stroke-width: 0px;"/>
  </g>
  <g>
    <path d="M37.11,76.12s.02-.06.06-.06h.75s.05,0,.05.06v5.11c0,.34-.01.66-.08.92-.24,1.03-1,1.39-1.84,1.39-.13,0-.28,0-.39-.03-.05-.01-.06-.04-.06-.09v-.63c0-.05.02-.07.08-.06.13.02.22.02.29.02.71,0,1.13-.35,1.13-1.43v-5.19Z" style="fill: #393939; stroke-width: 0px;"/>
    <path d="M43.14,79.72v2.42c0,.18,0,.33.02.5,0,.01,0,.03-.02.04-.72.33-1.3.42-1.93.42-1.12,0-1.94-.56-1.94-1.63s1.03-1.61,2.32-1.61c.37,0,.58.01.69.02v-.27c0-.34-.14-1.05-1.15-1.05-.5,0-.95.12-1.31.31-.03.01-.06,0-.06-.05v-.62s.01-.06.05-.08c.39-.19.9-.31,1.46-.31,1.33,0,1.87.85,1.87,1.94ZM42.28,80.55c-.14-.02-.36-.03-.66-.03-1,0-1.49.34-1.49.94,0,.46.31.94,1.23.94.34,0,.64-.05.92-.17v-1.68Z" style="fill: #393939; stroke-width: 0px;"/>
    <path d="M45.89,83c-.05,0-.08-.02-.1-.05-.23-.64-1.49-4.3-1.73-5-.01-.04,0-.07.05-.07h.8c.05,0,.06.02.09.06.88,2.75,1.24,3.83,1.35,4.26h.02c.13-.44.48-1.5,1.4-4.27.02-.04.04-.05.09-.05h.71s.06.02.05.07c-.3.82-1.55,4.38-1.78,4.99-.02.04-.04.06-.1.06h-.85Z" style="fill: #393939; stroke-width: 0px;"/>
    <path d="M53.06,79.72v2.42c0,.18,0,.33.02.5,0,.01,0,.03-.02.04-.72.33-1.3.42-1.93.42-1.12,0-1.94-.56-1.94-1.63s1.03-1.61,2.32-1.61c.37,0,.58.01.69.02v-.27c0-.34-.14-1.05-1.15-1.05-.5,0-.95.12-1.31.31-.03.01-.06,0-.06-.05v-.62s.01-.06.05-.08c.39-.19.9-.31,1.46-.31,1.33,0,1.87.85,1.87,1.94ZM52.19,80.55c-.14-.02-.36-.03-.66-.03-1,0-1.49.34-1.49.94,0,.46.31.94,1.23.94.34,0,.64-.05.92-.17v-1.68Z" style="fill: #393939; stroke-width: 0px;"/>
    <path d="M54.4,82.71s-.05-.06-.05-.13v-.74s.03-.06.08-.03c.54.36,1.19.51,1.76.51,1,0,1.45-.45,1.45-1.09,0-.5-.27-.86-1.24-1.31l-.44-.2c-1.26-.57-1.56-1.21-1.56-1.92,0-1.09.83-1.86,2.24-1.86.66,0,1.21.11,1.51.27.04.02.05.05.05.11v.7s-.03.07-.08.04c-.37-.23-.93-.34-1.5-.34-1.09,0-1.38.58-1.38,1,0,.49.27.84,1.2,1.25l.42.19c1.29.57,1.66,1.21,1.66,1.98,0,1.13-.85,1.93-2.36,1.93-.71,0-1.34-.14-1.76-.38Z" style="fill: #393939; stroke-width: 0px;"/>
    <path d="M63.3,82.86s0,.06-.04.08c-.32.13-.72.15-1.11.15-1.68,0-2.55-1.19-2.55-2.64,0-1.53,1.08-2.68,2.7-2.68.51,0,.8.05.96.13.04.02.05.04.05.09v.64c-.01.05-.04.05-.08.04-.26-.11-.52-.15-.94-.15-1.07,0-1.81.73-1.81,1.88,0,1.31.85,1.91,1.81,1.91.38,0,.69-.04.95-.14.04-.01.05,0,.05.04v.63Z" style="fill: #393939; stroke-width: 0px;"/>
    <path d="M65.2,77.87c.05,0,.08.02.09.06.04.13.08.49.09.71.37-.49,1.01-.86,1.68-.86.04,0,.06,0,.06.06v.76s-.01.05-.08.05c-.71-.01-1.36.34-1.63.74v3.54c0,.05-.02.06-.08.06h-.74c-.05,0-.06-.02-.06-.07v-3.65c0-.46-.02-1.04-.05-1.34-.01-.04,0-.06.05-.06h.67Z" style="fill: #393939; stroke-width: 0px;"/>
    <path d="M68.04,76.34c0-.31.22-.53.53-.53.33,0,.53.22.53.53s-.22.53-.54.53-.52-.21-.52-.53ZM68.13,77.95c0-.05.01-.07.06-.07h.74c.05,0,.08.01.08.06v4.99c0,.05-.02.07-.08.07h-.73c-.05,0-.08-.02-.08-.07v-4.98Z" style="fill: #393939; stroke-width: 0px;"/>
    <path d="M75.02,80.25c0,1.92-1.49,2.84-2.95,2.84-.23,0-.37-.01-.51-.03v2.06s-.01.06-.06.07c-.24.02-.7.07-.75.07-.04,0-.06,0-.06-.05v-6.55c0-.08-.01-.32-.02-.44,0-.02,0-.04.03-.05.37-.13,1.04-.39,1.9-.39,1.54,0,2.43,1.04,2.43,2.48ZM71.57,78.68v3.62c.16.04.37.05.57.05,1,0,1.99-.65,1.99-2.03,0-1.1-.59-1.79-1.65-1.79-.34,0-.65.06-.92.16Z" style="fill: #393939; stroke-width: 0px;"/>
    <path d="M78.56,82.86s0,.07-.05.09c-.24.11-.5.14-.78.14-.78,0-1.23-.37-1.23-1.35v-3.12h-.71c-.05,0-.06-.03-.06-.08v-.59c0-.05.01-.07.06-.07h.71c.01-.39.05-1.11.1-1.33.01-.05.03-.06.06-.07l.72-.12s.06,0,.06.04c-.03.35-.06.94-.06,1.48h1.1s.06.02.06.07v.61s-.02.05-.06.06h-1.11v3c0,.47.18.75.65.75.15,0,.3-.02.48-.08.03,0,.05,0,.05.05v.53Z" style="fill: #393939; stroke-width: 0px;"/>
  </g>
  <g>
    <path d="M40.7,24.17c0-.34.14-.47.55-.47h6.79c.35,0,.48.07.48.41v31.72c0,2.17-.14,4.41-.55,6.03-1.59,6.91-6.65,9.76-13.23,9.76-1.04,0-2.01-.07-2.84-.27-.42-.07-.48-.34-.48-.75v-5.76c0-.34.21-.47.55-.41.97.14,1.46.14,2.01.14,4.16,0,6.72-1.69,6.72-8.07V24.17Z" style="fill: #393939; stroke-width: 0px;"/>
    <path d="M69.04,40.23c-3.6,0-4.85,1.63-4.85,3.12s.97,2.64,5.47,4.54c7.34,2.92,9.91,5.9,9.91,10.57,0,6.44-5.13,10.17-13.03,10.17-3.95,0-7.34-.68-9.35-1.83-.28-.14-.42-.34-.42-.68v-6.1c0-.34.28-.47.48-.34,2.91,1.83,6.44,2.64,9.42,2.64,3.6,0,5.27-1.36,5.27-3.25,0-1.69-1.18-2.91-5.54-4.74-7-2.71-9.63-5.69-9.63-10.51,0-5.22,4.3-9.83,12.4-9.83,3.81,0,6.72.61,8.25,1.36.35.2.42.47.42.81v5.56c0,.41-.28.61-.62.41-2.08-1.08-5.2-1.9-8.18-1.9Z" style="fill: #393939; stroke-width: 0px;"/>
  </g>
</svg>