<?xml version="1.0" encoding="utf-8"?>
<!-- Generator: Adobe Illustrator 28.1.0, SVG Export Plug-In . SVG Version: 6.00 Build 0)  -->
<svg version="1.1" id="Layer_1" xmlns="http://www.w3.org/2000/svg" xmlns:xlink="http://www.w3.org/1999/xlink" x="0px" y="0px"
	 viewBox="0 0 800 800" style="enable-background:new 0 0 800 800;" xml:space="preserve">
<style type="text/css">
	.st0{fill:#6C757D;}
</style>
<g>
	<g id="SVGRepo_bgCarrier">
	</g>
	<g id="SVGRepo_tracerCarrier">
	</g>
	<path class="st0" d="M551.9,430.2l-15.2,15.1c0,0-36.1,35.9-134.6-62.1c-98.5-97.9-62.4-133.8-62.4-133.8l9.6-9.5
		c23.6-23.4,25.8-61,5.2-88.5l-42-56.1c-25.4-34-74.6-38.5-103.7-9.5l-52.3,52c-14.5,14.4-24.1,33-23,53.7
		c3,52.9,26.9,166.6,160.4,299.4c141.6,140.8,274.4,146.3,328.7,141.3c17.2-1.6,32.1-10.3,44.2-22.3l47.4-47.1
		c32-31.8,23-86.3-17.9-108.5l-63.7-34.6C605.6,405,572.9,409.3,551.9,430.2z"/>
</g>
</svg>
