<?xml version="1.0" encoding="UTF-8"?>
<svg id="b" data-name="text" xmlns="http://www.w3.org/2000/svg" xmlns:xlink="http://www.w3.org/1999/xlink" viewBox="0 0 113 92">
  <defs>
    <clipPath id="c">
      <rect width="162.53" height="89.68" style="fill: none; stroke-width: 0px;"/>
    </clipPath>
  </defs>
  <g style="clip-path: url(#c);">
    <path d="M15.46,5.27c-4.88,0-8.84,4.05-8.84,9.04v65.58c0,4.99,3.96,9.04,8.84,9.04h78.51c4.88,0,8.84-4.05,8.84-9.04V14.31c0-4.99-3.96-9.04-8.84-9.04H15.46Z" style="fill: #aed2c9; stroke-width: 0px;"/>
  </g>
  <g>
    <path d="M18.38,80.49l-.7,2.14s-.04.06-.08.06h-.68c-.05,0-.07-.02-.06-.08l2.15-6.38c.03-.08.05-.16.06-.42,0-.03.02-.05.05-.05h.99s.05,0,.06.05l2.31,6.81s0,.07-.04.07h-.76s-.06-.02-.08-.05l-.71-2.15h-2.5ZM20.65,79.71c-.22-.71-.84-2.52-1.02-3.25h-.01c-.17.69-.64,2.08-1.01,3.25h2.04Z" style="fill: #393939; stroke-width: 0px;"/>
    <path d="M23.13,80.18c0-1.55,1.08-2.7,2.7-2.7.27,0,.41.02.6.05v-2.29s.02-.06.06-.06h.73s.05.02.05.05v6.62c0,.15,0,.32.02.5,0,.04-.01.05-.05.07-.56.27-1.1.37-1.65.37-1.4,0-2.47-.88-2.47-2.61ZM26.43,78.32c-.15-.07-.37-.11-.63-.11-1.12,0-1.82.81-1.82,1.92,0,1.38.81,1.9,1.68,1.9.26,0,.55-.02.76-.12v-3.6Z" style="fill: #393939; stroke-width: 0px;"/>
    <path d="M33.04,80.12c0,1.6-.91,2.67-2.24,2.67-1.6,0-2.27-1.36-2.27-2.66,0-1.51.89-2.66,2.27-2.66s2.24,1.1,2.24,2.65ZM29.38,80.12c0,1.08.52,1.93,1.44,1.93.7,0,1.37-.59,1.37-1.91,0-1-.41-1.93-1.43-1.93-.81,0-1.38.73-1.38,1.91Z" style="fill: #393939; stroke-width: 0px;"/>
    <path d="M35.07,75.18s.06.01.06.06v2.42c.31-.13.66-.19,1.05-.19,1.37,0,2.26,1.01,2.26,2.46,0,1.9-1.34,2.86-2.74,2.86-.5,0-.92-.05-1.35-.2-.03-.01-.05-.05-.05-.08v-7.26s.01-.06.06-.06h.71ZM36.05,78.22c-.4,0-.67.07-.91.18v3.57c.19.05.37.07.63.07.95,0,1.82-.67,1.83-2.06,0-1.12-.62-1.77-1.55-1.77Z" style="fill: #393939; stroke-width: 0px;"/>
    <path d="M40.26,80.23c-.01,1.04.53,1.81,1.65,1.81.42,0,.84-.07,1.21-.26.04-.02.06-.01.06.04v.59c0,.05-.02.07-.05.1-.33.18-.77.28-1.37.28-1.71,0-2.34-1.3-2.34-2.6,0-1.5.81-2.71,2.19-2.71s1.92,1.2,1.92,2.09c0,.26-.01.45-.03.55-.01.04-.03.07-.08.07-.14.02-.58.04-1.06.04h-2.08ZM42.08,79.57c.5,0,.61-.01.64-.02.01-.03.01-.1.01-.13,0-.38-.23-1.24-1.16-1.24-.81,0-1.21.69-1.3,1.39h1.81Z" style="fill: #393939; stroke-width: 0px;"/>
    <path d="M47.32,75.84s.01-.07.06-.07c.32,0,.96-.03,1.62-.03,1.75,0,2.55,1.02,2.55,2.21,0,1.58-1.2,2.32-2.65,2.32-.4,0-.53-.01-.74-.01v2.37s-.01.06-.06.06h-.71s-.06-.02-.06-.06v-6.79ZM48.16,79.49c.18.01.34.01.74.01.96,0,1.82-.39,1.82-1.53,0-.96-.7-1.48-1.7-1.48-.39,0-.69.02-.86.03v2.96Z" style="fill: #393939; stroke-width: 0px;"/>
    <path d="M53.64,82.63c0,.05-.01.06-.06.06h-.71c-.05,0-.07-.02-.07-.07v-7.38s.01-.06.06-.06h.72c.05,0,.06.02.06.06v2.81c.41-.38.88-.58,1.45-.58.7,0,1.62.35,1.62,1.97v3.17c0,.05-.03.07-.07.07h-.7c-.05,0-.07-.02-.07-.07v-3.08c0-.79-.33-1.31-1.01-1.31-.47,0-.91.2-1.22.56v3.84Z" style="fill: #393939; stroke-width: 0px;"/>
    <path d="M62.48,80.12c0,1.6-.91,2.67-2.24,2.67-1.6,0-2.27-1.36-2.27-2.66,0-1.51.89-2.66,2.27-2.66s2.24,1.1,2.24,2.65ZM58.81,80.12c0,1.08.52,1.93,1.44,1.93.7,0,1.37-.59,1.37-1.91,0-1-.41-1.93-1.43-1.93-.82,0-1.38.73-1.38,1.91Z" style="fill: #393939; stroke-width: 0px;"/>
    <path d="M65.85,82.56s0,.07-.05.09c-.23.11-.47.14-.74.14-.74,0-1.18-.37-1.18-1.35v-3.12h-.68c-.05-.01-.06-.03-.06-.08v-.59c0-.05,0-.07.06-.07h.68c.01-.39.05-1.11.09-1.33.01-.05.03-.06.06-.07l.69-.12s.06,0,.06.04c-.03.35-.06.94-.06,1.48h1.05s.06.02.06.07v.61s-.02.05-.06.06h-1.06v3c0,.47.17.75.62.75.14,0,.29-.02.46-.08.03,0,.05,0,.05.05v.53Z" style="fill: #393939; stroke-width: 0px;"/>
    <path d="M71.05,80.12c0,1.6-.91,2.67-2.24,2.67-1.6,0-2.27-1.36-2.27-2.66,0-1.51.89-2.66,2.27-2.66s2.24,1.1,2.24,2.65ZM67.39,80.12c0,1.08.52,1.93,1.44,1.93.7,0,1.37-.59,1.37-1.91,0-1-.41-1.93-1.43-1.93-.81,0-1.38.73-1.38,1.91Z" style="fill: #393939; stroke-width: 0px;"/>
    <path d="M72.03,82.41s-.05-.06-.05-.13v-.74s.03-.06.07-.03c.52.36,1.13.51,1.68.51.96,0,1.39-.45,1.39-1.09,0-.5-.26-.86-1.19-1.31l-.42-.2c-1.21-.57-1.5-1.21-1.5-1.92,0-1.09.79-1.86,2.15-1.86.63,0,1.16.11,1.44.27.04.02.05.05.05.11v.7s-.03.07-.07.04c-.35-.23-.89-.34-1.43-.34-1.04,0-1.32.58-1.32,1,0,.49.26.84,1.15,1.25l.4.19c1.24.57,1.59,1.21,1.59,1.98,0,1.13-.81,1.93-2.26,1.93-.68,0-1.28-.14-1.68-.38Z" style="fill: #393939; stroke-width: 0px;"/>
    <path d="M78.06,82.63c0,.05,0,.06-.06.06h-.71c-.05,0-.07-.02-.07-.07v-7.38s.01-.06.06-.06h.72c.05,0,.06.02.06.06v2.81c.41-.38.88-.58,1.46-.58.7,0,1.62.35,1.62,1.97v3.17c0,.05-.03.07-.07.07h-.7c-.05,0-.07-.02-.07-.07v-3.08c0-.79-.33-1.31-1.01-1.31-.47,0-.91.2-1.22.56v3.84Z" style="fill: #393939; stroke-width: 0px;"/>
    <path d="M86.9,80.12c0,1.6-.91,2.67-2.24,2.67-1.6,0-2.27-1.36-2.27-2.66,0-1.51.89-2.66,2.27-2.66s2.24,1.1,2.24,2.65ZM83.23,80.12c0,1.08.52,1.93,1.44,1.93.7,0,1.37-.59,1.37-1.91,0-1-.41-1.93-1.43-1.93-.81,0-1.38.73-1.38,1.91Z" style="fill: #393939; stroke-width: 0px;"/>
    <path d="M92.3,79.95c0,1.92-1.42,2.84-2.83,2.84-.22,0-.35-.01-.49-.03v2.06s0,.06-.06.07c-.23.02-.67.07-.72.07-.04,0-.06,0-.06-.05v-6.55c0-.08,0-.32-.02-.44,0-.02,0-.04.03-.05.35-.13,1-.39,1.82-.39,1.47,0,2.33,1.04,2.33,2.48ZM88.98,78.38v3.62c.16.04.35.05.55.05.96,0,1.91-.65,1.91-2.03,0-1.1-.57-1.79-1.58-1.79-.33,0-.62.06-.88.16Z" style="fill: #393939; stroke-width: 0px;"/>
  </g>
  <g>
    <path d="M29.41,25.83c0-.34.07-.47.33-.47,2.52-.14,7.02-.2,11.53-.2,12.19,0,17.03,6.98,17.03,14.5,0,10.57-7.89,15.25-17.56,15.25h-3.91v14.23c0,.34-.13.47-.53.47h-6.49c-.27,0-.4-.14-.4-.47V25.83ZM36.83,48.13c1.06.07,1.92.07,3.91.07,5.5,0,10.14-2.03,10.14-8.34,0-5.08-3.45-8.07-9.41-8.07-2.12,0-3.91.14-4.64.2v16.13Z" style="fill: #393939; stroke-width: 0px;"/>
    <path d="M73.21,41.82c-3.45,0-4.64,1.63-4.64,3.12s.93,2.64,5.24,4.54c7.02,2.92,9.48,5.9,9.48,10.57,0,6.44-4.9,10.17-12.46,10.17-3.78,0-7.02-.68-8.95-1.83-.27-.14-.4-.34-.4-.68v-6.1c0-.34.26-.47.46-.34,2.78,1.83,6.16,2.64,9.01,2.64,3.45,0,5.04-1.36,5.04-3.25,0-1.69-1.13-2.91-5.3-4.74-6.69-2.71-9.21-5.69-9.21-10.51,0-5.22,4.11-9.83,11.86-9.83,3.64,0,6.43.61,7.89,1.36.33.2.4.47.4.81v5.56c0,.41-.26.61-.6.41-1.99-1.08-4.97-1.9-7.82-1.9Z" style="fill: #393939; stroke-width: 0px;"/>
  </g>
</svg>