<?xml version="1.0" encoding="UTF-8"?>
<svg xmlns="http://www.w3.org/2000/svg" width="150px" viewBox="0 0 341.44 357.3">
  <g id="a" data-name="rose">
    <g>
      <path d="M171.67,159.03c-.83-.66-3.07.57-7.54,3.02-.55.3-1.3.72-1.51,1.51-.29,1.08.54,2.42,1.51,3.02,2.11,1.3,6.12-.15,7.54-3.02.71-1.44,1.02-3.72,0-4.53Z" style="fill: #9f2125; stroke-width: 0px;"/>
      <path d="M159.6,160.54c.92,1.09,8.82-2.48,9.05-6.04.08-1.15-1.98-1.25-3.02-1.51-2.43-.61-7.09,6.31-6.04,7.54Z" style="fill: #9f2125; stroke-width: 0px;"/>
      <path d="M162.62,149.98c-.38,2.02-5.77,1.06-7.54,4.53-.86,1.68-.76,4.18,0,6.04.72,1.75,1.79,2.35,1.51,3.02-.44,1.04-3.74,1.27-6.04,0-3.8-2.1-5.88-7.34-3.02-12.07,1.77-2.93,5.41-6.55,9.05-6.04,3.18.45,6.34,2.9,6.04,4.53Z" style="fill: #9f2125; stroke-width: 0px;"/>
      <path d="M167.14,146.96c-.19.97,4.83,1.41,7.54,6.04.43.73,1.77,3.08,1.51,6.04-.46,5.15-5.36,7.32-4.53,9.05.68,1.42,4.65,1.38,7.54,0,4.86-2.33,5.86-8.07,6.04-9.05.23-1.29.97-5.54-1.51-9.05-4.65-6.58-16.31-4.46-16.6-3.02Z" style="fill: #9f2125; stroke-width: 0px;"/>
      <path d="M141.49,151.48c2.11,1.56-.57,5.44,1.51,10.56,2,4.94,6.87,7.24,7.54,7.54,7.05,3.21,13.75-.93,15.09,1.51.89,1.62-1.43,4.6-3.02,6.04-3.17,2.86-7.14,2.95-10.56,3.02-6.21.13-11.05-1.79-13.58-3.02-4.96-2.4-6.12-5.94-7.54-10.56-1.6-5.19,1.22-10.64,4.53-13.58,2.46-2.19,3.95-3.05,6.04-1.51Z" style="fill: #9f2125; stroke-width: 0px;"/>
      <path d="M144.51,145.45c.96.7,2.67-2.63,7.54-4.53,10.76-4.18,22.32,4.34,24.14,1.51.56-.86-.18-2.18-1.51-4.53-.56-.99-4.29-7.36-12.07-9.05-1.67-.36-4.42-.96-7.54,0-8.85,2.72-12.32,15.32-10.56,16.6Z" style="fill: #9f2125; stroke-width: 0px;"/>
      <path d="M177.7,134.89c-.25,1.71,2.88,2.15,6.04,6.04.53.66,4.43,5.59,4.53,12.07.05,3.44-1,5.34,0,6.04,1.23.85,4.25-1,6.04-3.02,2.66-3.01,2.88-6.74,3.02-9.05.17-2.87.35-5.93-1.51-9.05-2.28-3.82-6.56-5.96-10.56-6.04-3.1-.06-7.27,1.11-7.54,3.02Z" style="fill: #9f2125; stroke-width: 0px;"/>
      <path d="M149.04,183.17c.42-1.62,7.45.59,18.11-1.51,5.94-1.17,7.86-2.44,12.07-7.54,4.03-4.88,8.21-10.45,10.56-10.56,2.38-.12,4.35,5.53,4.53,6.04,1.53,4.5.54,8.51,0,10.56-.67,2.56-2.15,8.21-7.54,12.07-6.27,4.48-13.31,3.31-15.09,3.02-2.41-.4-5.16-1.78-10.56-4.53-8.26-4.2-12.39-6.3-12.07-7.54Z" style="fill: #9f2125; stroke-width: 0px;"/>
      <path d="M141.49,134.89c.56,1.11-2.88,2.95-7.54,9.05-2.6,3.41-4.78,6.26-6.04,10.56-1.8,6.15-.59,11.48,0,13.58.37,1.3,1.81,6,6.04,10.56,8.39,9.05,19.65,8.8,19.62,12.07-.02,2.43-6.24,4.16-7.54,4.53-7.94,2.21-20.81,1.69-28.67-7.54-5.66-6.65-5.92-14.52-6.04-18.11-.24-7.19,1.94-12.51,3.02-15.09,1.42-3.37,5.04-11.68,13.58-16.6,5.86-3.37,12.84-4.47,13.58-3.02Z" style="fill: #9f2125; stroke-width: 0px;"/>
      <path d="M124.9,132.37c1.37,1.21,4.66-2.19,16.66-5.83,7.33-2.22,12.04-2.76,13.63-2.92,5.79-.58,10.33-.19,12.12,0,14.37,1.51,21.95,8.2,24.23,5.83,1.37-1.43-.35-4.93-1.51-7.29-4.58-9.3-13.27-13.68-15.14-14.58-1.37-.66-17.91-8.28-33.32,0-13.29,7.15-19.14,22.59-16.66,24.78Z" style="fill: #9f2125; stroke-width: 0px;"/>
      <path d="M132.44,199.77c2.21-2.6,10.27,3.9,18.11,0,2.28-1.13,3.16-2.46,6.04-3.02,3.64-.71,6.29.63,9.05,1.51,7.21,2.29,14.37,1.16,18.11,0,1.6-.49,9.2-3.05,13.58-10.56,6.41-10.99,1.14-24.34-.82-26-.13-.11-.76-.61-.69-1.16.13-.96,2.33-1.42,3.02-1.51,3.97-.53,7.94,4.6,9.05,6.04,7.06,9.11,7.59,20.77,7.54,25.65-.08,8.21-.15,15.08-4.53,21.12-8.02,11.08-24.35,10.82-40.74,10.56-11.13-.18-23.18-.54-31.69-9.05-4.77-4.78-7.8-11.49-6.04-13.58Z" style="fill: #9f2125; stroke-width: 0px;"/>
      <path d="M180.72,103.2c-.68,2.09,8.48,4.5,15.09,15.09,3.12,5,4.3,9.63,4.53,10.56,2.75,11.21-1.71,17.61,3.02,24.14,1.26,1.73,1.44,1.1,4.53,4.53,0,0,4.43,4.92,7.54,10.56,1.07,1.94,11.21,20.33,4.53,36.21-5.24,12.47-18.39,17.57-16.6,21.12.43.84,1.52,1.26,6.04,1.51,10.76.59,16.13-3.64,21.12-6.04,10.01-4.8,13.26-11.69,15.09-18.11.92-3.25,2.4-9.67,1.51-21.12-.59-7.56-2.87-25.74-15.09-46.78-7.06-12.15-13.1-22.55-25.65-28.67-11.93-5.82-24.88-5.39-25.65-3.02Z" style="fill: #9f2125; stroke-width: 0px;"/>
      <path d="M138.47,103.2c.55,2.42-8.59,4.06-16.6,13.58-3.51,4.18-5.06,7.8-7.54,13.58-7.82,18.25-7.65,33.93-7.54,37.72.17,6.37.37,11.69,3.02,18.11.86,2.08,2.99,6.74,10.56,15.09,12.37,13.65,20.62,16.58,19.62,19.62-1.13,3.42-13.01,3.96-22.63,0-3.62-1.49-8.84-4.41-15.09-12.07-15.14-18.55-16.45-40.5-16.6-43.76-.2-4.3-.71-23.25,10.56-42.25,3.98-6.71,9.26-15.35,19.62-19.62,10.35-4.27,22.03-2.63,22.63,0Z" style="fill: #9f2125; stroke-width: 0px;"/>
      <path d="M108.3,100.18c.63,1.15,14.8-9.3,27.16-4.53,2.49.96,3.79,2.11,7.54,3.02,6.04,1.46,7.5,1.17,15.09,1.51,8.02.36,9.7,1,16.6,0,3.11-.45,3.04-.93,6.04-1.51,12.13-2.34,20.61,4.07,22.63,1.51,1.44-1.82-1.38-6.95-4.53-10.56-10.44-12.01-28.39-12.06-34.7-12.07-12.4-.03-21.58,3.35-28.67,6.04-16.94,6.42-27.72,15.58-27.16,16.6Z" style="fill: #9f2125; stroke-width: 0px;"/>
      <path d="M126.4,82.08c.24,1.42-10.42,1.67-19.62,10.56-2.88,2.78-4.47,5.41-7.54,10.56-3.08,5.16-7.97,13.46-12.07,25.65-2.68,7.97-5.61,16.67-6.04,28.67-.21,6.02-.51,17.57,4.53,30.18,7.77,19.45,23.21,28.89,21.12,31.69-1.29,1.72-7.73-1.11-12.07-3.02-7.17-3.15-18.89-8.31-24.14-19.62-2.77-5.96-.57-6.8-4.53-18.11-2.4-6.86-5.03-11.77-6.04-13.58-5.35-9.65-13.35-12.74-12.07-16.6.17-.52,1.12-1.36,3.02-3.02,3.7-3.24,6.39-5.13,7.54-6.04,3.41-2.67,4.51-5.34,7.54-10.56,1.66-2.85,7.05-11.91,13.58-19.62,3.97-4.68,3.61-3.26,13.58-13.58,7.96-8.24,6.45-7.4,9.05-9.05,9.92-6.29,23.89-6.03,24.14-4.53Z" style="fill: #9f2125; stroke-width: 0px;"/>
      <path d="M180.72,73.02c.66,3.49,8.03,1.35,16.6,7.54,9.71,7.03,12.56,18.7,12.07,21.12-.03.16-.18.77,0,1.51.38,1.55,1.91,2.41,3.02,3.02,3.3,1.8,4.94,2.7,6.04,3.02,0,0,3.15.92,19.62,7.54,15.17,6.1,18.4,18.3,22.63,16.6,4.44-1.78,5.16-16.9,0-28.67-2.44-5.57-8.53-15.72-13.58-24.14-1.46-2.44-2.73-4.49-3.02-7.54-.41-4.43,1.54-7.84,0-9.05-.75-.59-1.8-.26-3.02,0-1.67.36-4.63.24-10.56,0-4.71-.19-4.37-1.18-13.58-3.02-5.1-1.02-7.65-1.53-10.56-1.51-6.35.04-11.25,1.95-13.58,3.02-.84.38-12.93,6.02-12.07,10.56Z" style="fill: #9f2125; stroke-width: 0px;"/>
      <path d="M105.28,80.57c.6.83,5.5-2.47,13.58-3.02,4.79-.33,5.98-.35,12.07,0,2.43.14,6.18-.41,13.58-1.51,20.63-3.07,24.63-3.7,27.16-3.02.38.1,1.65.48,3.02,0,1.82-.64,2.69-2.42,3.02-3.02,3.03-5.52,12.05-6.1,12.07-9.05.03-3.31-11.24-5.85-12.07-6.04-3.51-.77-7.87-1.02-16.6-1.51-5.03-.28-6.73-.26-9.05-1.51-2.7-1.46-4.11-3.5-6.04-3.02-1.02.25-1.3.99-3.02,3.02,0,0-2.09,2.45-4.53,4.53-1.7,1.45-3.67,2.49-7.54,4.53-3.51,1.84-3.99,1.93-6.04,3.02-4.01,2.14-6.78,4.27-9.05,6.04-4.82,3.75-11.23,9.63-10.56,10.56Z" style="fill: #a12125; stroke-width: 0px;"/>
      <path d="M111.31,223.91c7.54,3.02,7.16,3.73,15.09,4.53,5.24.52,8.83,1.03,18.11,0,3.65-.41,14.26-.2,21.12,0,23.19.68,22.71-.5,27.16-1.51.59-.13,2.33,0,4.53,0,3.02,0,4.14,1.09,4.53,1.51,5.33,5.8,22.75-2.66,24.14,0,.48.92-1.16,2.63-3.02,4.53-10.27,10.52-15.4,15.77-16.6,16.6-.37.25-8.77,5.97-18.11,9.05-1.03.34-3.91,1.25-7.54,3.02-3.21,1.56-5.3,2.57-7.54,4.53-3.86,3.36-3.8,5.68-6.04,6.04-2.37.37-3.18-2.11-7.54-4.53-3.8-2.1-7.27-2.49-12.07-3.02-5.62-.62-7.2.22-10.56,0-8.88-.58-15.24-7.33-21.12-13.58-7.39-7.85-4.51-9.37-12.07-19.62-.6-.81-3.48-5.66-3.02-7.54.64-2.62,7.75-1.12,10.56,0Z" style="fill: #9f2125; stroke-width: 0px;"/>
      <path d="M227.5,119.8c-.97,1.55,4.67,5.29,10.56,13.58,4.72,6.64,6.89,12.38,9.05,18.11,3.21,8.48,8.96,24.26,6.04,43.76-.77,5.12-1.42,10.43-4.53,16.6-3.68,7.32-8.83,12.19-13.58,16.6-9.37,8.7-15.83,11.27-15.09,13.58.85,2.65,10.16,1.81,13.58,1.51,5.64-.5,14.57-1.41,24.14-7.54,3.78-2.42,12.5-8.01,16.6-18.11,1.24-3.04,3.19-9.32,4.53-13.58,2.06-6.58,2.44-8.44,4.53-10.56,3.38-3.43,7.39-3.64,7.54-6.04.09-1.4-1.25-1.9-3.02-4.53-1.62-2.4-2.18-4.48-3.02-7.54-1.48-5.44-.87-7.74-1.51-12.07-.3-2.03-1.95-11.79-9.05-18.11-1.45-1.29-.74-.32-10.56-6.04-5.96-3.47-9-5.25-12.07-7.54-5.56-4.15-5.1-5.02-9.05-7.54-6.13-3.93-14.04-6.2-15.09-4.53Z" style="fill: #9f2125; stroke-width: 0px;"/>
      <path d="M254.66,82.08c-1.13,4.85,6.15,5.31,10.56,16.6,4.63,11.85,4.13,30.63,3.02,34.7-.1.37-.49,1.65,0,3.02.59,1.67,2.15,2.53,3.02,3.02,3.48,1.95,6.77,4,7.54,4.53,6.33,4.29,7.54,12.07,7.54,15.09,0,.59,3.02,0,6.04-1.51,6.04-4.53,10.08-9.62,12.07-12.07,13.44-16.58,14.12-24.88,15.09-33.2.19-1.62.51-5.92,3.02-10.56.43-.79,1.87-3.36,4.53-6.04,1.57-1.58,3.28-3.31,6.04-4.53,2.59-1.14,4.54-1.14,4.53-1.51-.03-.53-4.06-.23-9.05-1.51-3.32-.85-8.68-3.56-10.56-4.53-5.54-2.87-6.04-3.02-9.05-4.53-5.41-2.7-9.98-5.41-16.6-6.04-13.02-1.23-35.69.34-37.72,9.05Z" style="fill: #035638; stroke-width: 0px;"/>
      <path d="M56.99,175.63c4.1,1.58.27,9.4,6.04,21.12,5.64,11.48,16.84,19.29,21.12,21.12.43.18,2.92,1.22,6.04,3.02,1.8,1.04,3.24,1.87,4.53,3.02,2.78,2.47,3.65,5.37,4.53,7.54,4.28,10.69,12.15,13.61,10.56,18.11-.28.79-.83,1.57-3.02,3.02-6.46,4.29-13.65,5.46-21.12,6.04-11.78.91-12.84-.56-18.11,1.51-2.27.89-7.14,2.81-10.56,7.54-3.22,4.47-3.51,9.17-4.53,9.05-.86-.1-1.01-3.46-1.51-7.54,0,0-.71-5.83-3.02-15.09-2.09-8.39-4.31-9.46-7.54-18.11-2.72-7.28-4.07-13.61-4.53-19.62-.5-6.57-1.16-15.15,3.02-24.14,4.21-9.08,13.28-18.46,18.11-16.6Z" style="fill: #035638; stroke-width: 0px;"/>
    </g>
    <rect x="33.6" y="294.08" width="277.64" height="55.83" style="fill: none; stroke-width: 0px;"/>
  </g>
  <g id="b" data-name="text">
    <g>
      <path d="M103.62,22.45c0,2.81-1.08,4.99-3.24,6.53-1.56,1.11-3.56,1.66-6.01,1.66.07,0-.21,0-.85,0h-3.73s-.17,0-.65,0h-1.76c-.41,0-.61-.11-.61-.34,0-.2.14-.29.43-.27h.83c.48.02.74-.11.79-.39.05-.1.07-.51.07-1.25v-11.5c0-1.15-.02-1.76-.07-1.83-.12-.14-.54-.23-1.26-.25-.43,0-.65-.08-.65-.25,0-.19.22-.29.65-.29-.05,0,.06,0,.32,0h3.71c3.14,0,5.38.19,6.7.58,1.58.46,2.87,1.39,3.85,2.8.98,1.41,1.48,3.01,1.48,4.82ZM100.16,22.32c0-4.97-2.01-7.45-6.02-7.45-1.22,0-1.89.07-2.03.2-.13.13-.2.57-.2,1.31v12.71c0,.43.1.7.3.79.2.1.72.14,1.56.14,4.25,0,6.38-2.57,6.38-7.7Z" style="fill: #010101; stroke-width: 0px;"/>
      <path d="M122.23,26.76s-.02.18-.05.46-.05.53-.05.75v2.09c0,.22.04.46.11.72l-6.01-.11-6.88.11c-.51,0-.76-.1-.76-.29,0-.22.14-.33.43-.33.77,0,1.22-.05,1.35-.16.13-.11.2-.5.2-1.17v-12.38c0-.98-.08-1.51-.25-1.57-.17-.06-.59-.09-1.26-.09-.29,0-.43-.08-.43-.25,0-.19.16-.29.47-.29h12.31v.25l.04.53c.05.35.14,1.42.29,3.19.02.12.04.26.04.43,0,.31-.08.46-.25.46-.21,0-.37-.24-.47-.72-.33-1.82-.97-2.89-1.9-3.2-.53-.17-1.77-.25-3.73-.25h-1.83v6.73h.86c1.52,0,2.46-.13,2.82-.38.36-.25.59-.94.71-2.07.07-.67.22-1.01.43-1.01.24,0,.36.24.36.72,0,.29-.02.73-.05,1.33-.04.6-.05,1.06-.05,1.37,0,1.56.03,2.63.08,3.2.02.19.03.35.03.47,0,.38-.12.58-.35.58-.21,0-.36-.3-.43-.9-.14-1.3-.38-2.07-.71-2.32-.33-.25-1.27-.38-2.8-.38h-.89v7.78c3.51-.02,5.58-.12,6.2-.29.96-.26,1.52-1.42,1.68-3.46.02-.36.16-.54.4-.54s.36.33.36.99Z" style="fill: #010101; stroke-width: 0px;"/>
      <path d="M138.17,26.01c0,1.34-.58,2.49-1.73,3.44-1.15.96-2.54,1.43-4.18,1.43-1.22,0-2.48-.37-3.78-1.12-.14-.05-.24-.07-.29-.07-.14,0-.23.11-.25.34-.02.23-.06.42-.11.59-.05.17-.17.25-.36.25-.24,0-.36-.12-.36-.36,0-.05.02-.41.07-1.08.05-.67.07-1.25.07-1.73v-1.84c0-.46.12-.68.36-.68s.42.37.54,1.12c.46,2.64,1.87,3.96,4.25,3.96,2.02,0,3.02-1,3.02-3.01,0-.88-.24-1.6-.72-2.15-.48-.55-1.42-1.17-2.81-1.86-1.82-.91-2.99-1.62-3.49-2.15-.65-.69-.97-1.55-.97-2.58,0-1.31.48-2.4,1.44-3.24.96-.85,2.17-1.27,3.64-1.27.91,0,1.88.28,2.92.83.12.07.22.11.29.11.17,0,.28-.17.32-.52.05-.35.19-.52.43-.52s.36.12.36.36c0,.05-.01.14-.04.29-.05.38-.07.88-.07,1.48,0,.36.04,1.01.11,1.94.02.1.04.2.04.32,0,.29-.1.43-.29.43-.22,0-.37-.21-.47-.64-.22-1.05-.65-1.88-1.31-2.52-.66-.63-1.43-.95-2.32-.95-1.73,0-2.59.92-2.59,2.76,0,.81.23,1.48.68,2.01.24.29.5.51.79.68.29.17,1.13.59,2.52,1.25,1.56.77,2.66,1.5,3.31,2.2.65.71.97,1.54.97,2.49Z" style="fill: #010101; stroke-width: 0px;"/>
      <path d="M149.95,30.42c0,.14-.11.22-.32.22h-6.05c-.41,0-.61-.06-.61-.19,0-.17.26-.26.79-.28.72-.05,1.1-.13,1.13-.25.04-.12.05-.64.05-1.56v-11.67c0-.94-.02-1.49-.07-1.65-.05-.16-.23-.25-.54-.27h-1.08c-.22,0-.32-.08-.32-.25s.16-.25.47-.25c-.02,0,.05,0,.22,0h5.72c.38,0,.58.1.58.29,0,.14-.41.23-1.22.25-.34,0-.54.05-.61.16-.07.11-.11.44-.11.99v13.57c0,.24.09.4.27.47.18.07.61.13,1.28.18.29.02.43.11.43.25Z" style="fill: #010101; stroke-width: 0px;"/>
      <path d="M171.26,25.67c0,.12-.22.19-.65.22h-1.15c-.12.02-.21.13-.27.32-.06.19-.09.62-.09,1.3v1.44c-1.58,1.3-3.41,1.94-5.47,1.94-2.64,0-4.74-.75-6.3-2.25-1.56-1.5-2.34-3.49-2.34-5.98s.76-4.68,2.29-6.27c1.52-1.59,3.53-2.39,6.03-2.39,1.3,0,2.69.41,4.18,1.22.12.07.23.11.32.11.19,0,.32-.16.4-.47.14-.43.31-.65.5-.65s.29.1.29.29c0-.05-.02.16-.07.61-.07.7-.11,2.08-.11,4.14,0,.55-.14.83-.43.83-.22,0-.32-.14-.32-.43-.05-1.56-.49-2.8-1.31-3.73-.83-.92-1.9-1.39-3.22-1.39-1.61,0-2.87.72-3.78,2.16s-1.37,3.4-1.37,5.89.46,4.29,1.39,5.68c.92,1.39,2.18,2.08,3.76,2.08,1.44,0,2.33-.45,2.66-1.36.12-.31.18-.81.18-1.5,0-.86-.05-1.34-.16-1.45-.11-.11-.56-.16-1.35-.16h-.58c-.19,0-.29-.08-.29-.24,0-.2.29-.3.86-.3h5.8c.41,0,.61.11.61.32Z" style="fill: #010101; stroke-width: 0px;"/>
      <path d="M190.52,14.51c0,.17-.26.25-.79.25h-.9c-.22,0-.34.05-.38.14-.04.1-.05.42-.05.98v13.27c0,.87-.01,1.38-.04,1.52-.02.14-.13.22-.32.22-.26,0-1.12-1.01-2.56-3.02-.17-.26-.43-.63-.79-1.08-.05-.07-.18-.25-.39-.54-1.2-1.59-3.37-4.58-6.52-8.98v11.42c0,.89.13,1.37.38,1.41.25.05.71.07,1.39.07h.14c.29,0,.43.08.43.23,0,.18-.26.27-.79.27-.1,0-.49-.02-1.19-.07-.36-.02-.68-.04-.97-.04-.24,0-.48.01-.72.04-.46.05-.95.07-1.48.07-.38,0-.58-.09-.58-.27,0-.16.23-.23.68-.23h.32l.47-.04c.58-.05.88-.16.9-.33.02-.1.04-.45.04-1.05v-9.97c0-1.81-.11-2.9-.32-3.26-.29-.48-.85-.73-1.69-.73-.6,0-.9-.1-.9-.3,0-.16.16-.24.47-.24h4.57l8.5,11.7v-10.01c0-.6-.02-.95-.07-1.04-.05-.1-.24-.14-.58-.14h-.97c-.46,0-.68-.09-.68-.27,0-.11.11-.18.34-.2.23-.02,1.04-.03,2.43-.03s2.09.01,2.3.03c.22.02.32.09.32.22Z" style="fill: #010101; stroke-width: 0px;"/>
      <path d="M206.43,26.01c0,1.34-.58,2.49-1.73,3.44-1.15.96-2.54,1.43-4.18,1.43-1.22,0-2.48-.37-3.78-1.12-.14-.05-.24-.07-.29-.07-.14,0-.23.11-.25.34-.02.23-.06.42-.11.59-.05.17-.17.25-.36.25-.24,0-.36-.12-.36-.36,0-.05.02-.41.07-1.08.05-.67.07-1.25.07-1.73v-1.84c0-.46.12-.68.36-.68s.42.37.54,1.12c.46,2.64,1.87,3.96,4.25,3.96,2.02,0,3.02-1,3.02-3.01,0-.88-.24-1.6-.72-2.15-.48-.55-1.42-1.17-2.81-1.86-1.82-.91-2.99-1.62-3.49-2.15-.65-.69-.97-1.55-.97-2.58,0-1.31.48-2.4,1.44-3.24.96-.85,2.17-1.27,3.64-1.27.91,0,1.88.28,2.92.83.12.07.22.11.29.11.17,0,.28-.17.32-.52.05-.35.19-.52.43-.52s.36.12.36.36c0,.05-.01.14-.04.29-.05.38-.07.88-.07,1.48,0,.36.04,1.01.11,1.94.02.1.04.2.04.32,0,.29-.1.43-.29.43-.22,0-.37-.21-.47-.64-.22-1.05-.65-1.88-1.31-2.52-.66-.63-1.43-.95-2.32-.95-1.73,0-2.59.92-2.59,2.76,0,.81.23,1.48.68,2.01.24.29.5.51.79.68.29.17,1.13.59,2.52,1.25,1.56.77,2.66,1.5,3.31,2.2.65.71.97,1.54.97,2.49Z" style="fill: #010101; stroke-width: 0px;"/>
      <path d="M234.29,26.35c0,1.1-.4,2.02-1.21,2.74-.8.72-1.91,1.19-3.33,1.4-.84.12-2.7.18-5.58.18h-2.77c-.17.02-.25-.06-.25-.25,0-.14.05-.23.14-.25s.38-.04.86-.04.76-.05.83-.14c.07-.1.11-.4.11-.9v-13c0-.62-.04-.99-.11-1.1-.07-.11-.46-.17-1.15-.2-.5-.02-.76-.11-.76-.25,0-.19.26-.29.79-.29h.61c.26,0,.97.02,2.12.07h1.73c1.66.02,2.7.06,3.13.11.58.05,1.1.16,1.58.32,1.73.62,2.59,1.72,2.59,3.28,0,2.18-1.68,3.48-5.04,3.89l.04.11c1.75.02,3.13.43,4.14,1.21,1.01.78,1.51,1.82,1.51,3.11ZM230.41,18.27c0-1.57-.36-2.57-1.07-2.97-.41-.24-1.08-.36-2.04-.36-.41,0-.7.01-.89.04l-.29.04v6.66c1.28-.02,2.17-.14,2.64-.36,1.09-.5,1.64-1.52,1.64-3.04ZM231.16,26.08c0-2.53-1.43-3.8-4.29-3.8h-.75v7.2c0,.29.06.46.18.52.12.06.46.09,1.04.09,2.55,0,3.82-1.34,3.82-4.01Z" style="fill: #010101; stroke-width: 0px;"/>
      <path d="M254.56,14.51c0,.14-.16.23-.47.25-.84.07-1.37.2-1.6.4-.23.19-.76,1.13-1.6,2.81-.74,1.51-1.49,2.9-2.23,4.18-.31.53-.49.9-.54,1.12-.05.22-.07.66-.07,1.33v4.46c0,.48.07.76.22.85.14.08.64.15,1.48.2.43.02.65.12.65.29s-.17.25-.5.25h-4s-.16,0-.56,0h-2.14c-.31,0-.47-.08-.47-.25,0-.19.35-.3,1.06-.32.71-.02,1.12-.1,1.22-.22.11-.12.16-.54.16-1.26v-4.79c-.14-.29-.36-.71-.65-1.26l-2.48-4.39c-.36-.67-.65-1.21-.86-1.62s-.47-.86-.76-1.37c-.22-.24-.82-.37-1.8-.4-.31,0-.47-.08-.47-.25,0-.19.16-.29.47-.29-.02,0,.2,0,.68,0h6.23c.36,0,.54.1.54.29,0,.17-.31.25-.94.25-.96,0-1.44.16-1.44.47,0,.38,1.27,2.74,3.82,7.06,2.45-4.56,3.67-6.96,3.67-7.2,0-.19-.2-.3-.61-.33h-.97c-.41,0-.61-.1-.61-.29,0-.17.2-.25.61-.25h2.27c1.8-.07,2.7.02,2.7.29Z" style="fill: #010101; stroke-width: 0px;"/>
    </g>
    <g>
      <path d="M25.85,299.75c0,.39-.18.59-.54.59s-.62-.39-.77-1.18c-.06-.54-.12-1.09-.18-1.63-.21-1.09-.56-2.01-1.04-2.76-.63-1-1.67-1.63-3.12-1.9-.94-.18-1.69-.26-2.26-.23-1.42.04-2.28.07-2.58.09v27.34c0,1.09.29,1.77.86,2.04.3.15,1.15.24,2.54.27.36.03.54.16.54.38,0,.26-.24.38-.72.38-.24,0-.45-.02-.63-.04-1.81-.06-3.09-.09-3.85-.09-1,0-1.93.02-2.81.07-.88.04-1.99.07-3.35.07-.69,0-1.04-.12-1.04-.36,0-.27.65-.42,1.95-.45.94,0,1.54-.2,1.81-.59.15-.24.23-.86.23-1.86v-27.16c-2.99.03-4.84.18-5.57.45-1.9.7-3.02,2.55-3.35,5.57-.09.91-.3,1.36-.63,1.36-.36,0-.54-.32-.54-.95,0-.33.01-.66.05-1l.09-1.04c.09-1.39.23-3.21.41-5.48h2.04l9.23.14c1.09.03,2.78.03,5.07,0l7.51-.14c.06,1.69.26,4.2.59,7.51,0,.09.01.2.05.34.03.14.04.22.04.25Z" style="fill: #010101; stroke-width: 0px;"/>
      <path d="M48.66,322.79c0,.21-.45.32-1.36.32h-6.29c-.66.03-1-.07-1-.29,0-.17.25-.27.76-.29.98-.03,1.5-.17,1.55-.41.06-.15.09-.65.09-1.49v-8.28h-8.56v9.33c.06.33.19.54.38.63.19.09.7.15,1.53.18.33,0,.49.11.49.32s-.3.32-.91.32h-7.02c-.45,0-.68-.11-.68-.32s.44-.33,1.31-.36c.66-.03,1.03-.21,1.09-.54v-16.93c0-.84-.02-1.3-.05-1.36-.03-.24-.3-.36-.81-.36-1.03-.03-1.54-.18-1.54-.45,0-.18.21-.27.63-.27h7.15c.51,0,.77.12.77.36,0,.27-.4.39-1.2.36-.5,0-.82.05-.96.16-.13.11-.2.42-.2.93v7.15h8.56v-6.14c0-.95-.03-1.48-.09-1.6-.06-.36-.36-.51-.89-.45h-.84c-.39-.06-.58-.19-.58-.38,0-.26.32-.38.95-.38h6.56c.72,0,1.09.11,1.09.32,0,.24-.2.36-.61.36s-.75.01-1.02.04c-.39,0-.62.08-.68.23-.06.15-.09.63-.09,1.45v15.66c0,1.03.08,1.59.23,1.7.15.11.68.16,1.58.16.42,0,.63.12.63.36Z" style="fill: #010101; stroke-width: 0px;"/>
      <path d="M67.9,318.24s-.02.22-.07.58c-.05.35-.07.67-.07.94v2.62c0,.27.05.58.14.91l-7.55-.14-8.65.14c-.64,0-.96-.12-.96-.36,0-.27.18-.41.54-.41.97,0,1.53-.07,1.7-.2.17-.14.25-.63.25-1.47v-15.57c0-1.24-.11-1.89-.32-1.97-.21-.07-.74-.11-1.58-.11-.36,0-.54-.11-.54-.32,0-.24.2-.36.59-.36h15.48v.31l.05.67c.06.45.18,1.78.36,4.01.03.15.05.33.05.54,0,.39-.11.58-.32.58-.27,0-.47-.3-.59-.91-.42-2.29-1.22-3.64-2.39-4.03-.66-.21-2.22-.32-4.69-.32h-2.3v8.46h1.08c1.92,0,3.1-.16,3.55-.48.45-.32.75-1.18.9-2.6.09-.84.27-1.27.54-1.27.3,0,.45.3.45.91,0,.36-.02.92-.07,1.67-.05.75-.07,1.33-.07,1.72,0,1.96.03,3.3.1,4.03.02.24.03.44.03.59,0,.48-.15.72-.45.72-.27,0-.45-.38-.54-1.13-.18-1.63-.48-2.6-.89-2.92-.42-.32-1.59-.48-3.53-.48h-1.12v9.78c4.42-.03,7.01-.15,7.8-.36,1.2-.33,1.91-1.78,2.12-4.35.03-.45.2-.68.5-.68s.45.42.45,1.24Z" style="fill: #010101; stroke-width: 0px;"/>
      <path d="M107.91,322.7c0,.27-.29.41-.85.41h-9.84c-.6,0-.9-.12-.9-.36s.7-.41,2.1-.5c.74-.06,1.18-.19,1.3-.38.12-.2.18-.9.18-2.1v-13.18h-13.62v12.81c0,1.36.11,2.16.32,2.4s.92.41,2.13.5c.78.06,1.18.2,1.18.41,0,.27-.3.41-.9.41h-9.82c-.6,0-.91-.12-.91-.36s.3-.39.91-.45c.39-.03.8-.06,1.22-.09.66-.06,1.09-.21,1.27-.45.09-.15.14-1,.14-2.53v-23.87c0-1.36-.07-2.15-.2-2.4-.14-.24-.61-.38-1.43-.41-.94-.06-1.49-.11-1.65-.14-.17-.03-.25-.16-.25-.38,0-.25.2-.38.59-.38.12,0,.38.02.77.05.75.06,2.54.09,5.34.09,1.54,0,2.61-.02,3.21-.07.21-.04.48-.07.82-.07.54,0,.81.15.81.45,0,.27-.49.41-1.47.41s-1.57.11-1.77.34c-.2.23-.29.95-.29,2.16v10.45h13.62v-9.76c0-1.6-.12-2.55-.36-2.84-.24-.29-1.09-.42-2.54-.39-.45,0-.68-.14-.68-.41s.26-.41.77-.41h9.87c.63,0,.95.14.95.41s-.66.42-1.99.45c-.39,0-.68.03-.86.09-.3.09-.49.26-.56.5-.08.24-.11.95-.11,2.13v24.08c0,1.45.07,2.29.22,2.54.3.33,1.16.5,2.59.5.48-.06.71.06.71.36Z" style="fill: #010101; stroke-width: 0px;"/>
      <path d="M130.77,312.94c0,2.92-.95,5.4-2.85,7.43-1.9,2.03-4.23,3.05-6.97,3.05-2.93,0-5.4-1.03-7.4-3.09-2.01-2.06-3.01-4.58-3.01-7.57s.96-5.64,2.88-7.61c1.92-1.97,4.37-2.96,7.36-2.96s5.21,1.03,7.13,3.09c1.92,2.06,2.87,4.62,2.87,7.66ZM126.52,313.08c0-3.49-.71-6.25-2.13-8.26-.91-1.29-2.16-1.94-3.76-1.94-2.2,0-3.8,1.21-4.8,3.61-.7,1.69-1.04,3.82-1.04,6.41,0,3.1.54,5.53,1.63,7.27,1.09,1.75,2.6,2.62,4.53,2.62,3.71,0,5.57-3.24,5.57-9.71Z" style="fill: #010101; stroke-width: 0px;"/>
      <path d="M153.32,302.87c0,.21-.24.32-.72.32h-1.13c-.48,0-.72.3-.72.9v8.34c0,2.91-.06,4.79-.18,5.63-.12.84-.44,1.68-.95,2.52-1.18,1.89-3.26,2.84-6.25,2.84-2.47,0-4.45-.57-5.93-1.72-1.36-1.05-2.04-3.09-2.04-6.1v-9.53c0-1.62-.05-2.51-.16-2.66-.11-.15-.55-.23-1.34-.23-.63,0-.95-.12-.95-.36,0-.21.21-.32.63-.32h7.15c.54,0,.82.12.82.36,0,.3-.56.44-1.67.41-.33,0-.53.05-.59.16-.06.11-.09.44-.09,1.02v10.84c0,2.95.38,4.86,1.13,5.74.84.99,2.1,1.49,3.76,1.49,2.32,0,3.91-.96,4.75-2.88.42-.96.63-2.51.63-4.64,0,.03,0-.13,0-.5v-10.41c0-.39-.08-.63-.23-.72-.15-.09-.58-.14-1.27-.14s-1.04-.13-1.04-.41c0-.21.18-.32.54-.32h5.12c.48,0,.72.12.72.36Z" style="fill: #010101; stroke-width: 0px;"/>
      <path d="M169.25,317.29c0,1.68-.72,3.12-2.17,4.33s-3.2,1.8-5.25,1.8c-1.54,0-3.12-.47-4.75-1.41-.18-.06-.3-.09-.36-.09-.18,0-.29.14-.32.43-.03.28-.08.53-.14.75-.06.21-.21.32-.45.32-.3,0-.45-.15-.45-.45,0-.06.03-.51.09-1.36.06-.84.09-1.57.09-2.17v-2.31c0-.57.15-.86.45-.86s.53.47.68,1.4c.57,3.32,2.35,4.98,5.34,4.98,2.53,0,3.8-1.26,3.8-3.79,0-1.11-.3-2.01-.91-2.7-.6-.69-1.78-1.47-3.53-2.34-2.29-1.14-3.76-2.04-4.39-2.7-.81-.87-1.22-1.95-1.22-3.25,0-1.65.6-3.01,1.81-4.08s2.73-1.6,4.57-1.6c1.15,0,2.37.35,3.67,1.04.15.09.27.14.36.14.21,0,.35-.22.41-.66s.24-.66.54-.66.45.15.45.45c0,.06-.02.18-.04.36-.06.48-.09,1.1-.09,1.86,0,.45.04,1.27.14,2.44.03.12.04.26.04.41,0,.36-.12.54-.36.54-.27,0-.47-.27-.59-.81-.27-1.32-.82-2.37-1.65-3.16s-1.8-1.19-2.92-1.19c-2.17,0-3.26,1.16-3.26,3.47,0,1.02.29,1.86.86,2.52.3.36.63.65,1,.86.36.21,1.42.74,3.17,1.58,1.96.96,3.35,1.89,4.17,2.77.81.89,1.22,1.93,1.22,3.13Z" style="fill: #010101; stroke-width: 0px;"/>
      <path d="M188.44,318.24s-.02.22-.07.58c-.04.35-.07.67-.07.94v2.62c0,.27.04.58.14.91l-7.55-.14-8.65.14c-.64,0-.96-.12-.96-.36,0-.27.18-.41.54-.41.97,0,1.53-.07,1.7-.2.17-.14.25-.63.25-1.47v-15.57c0-1.24-.11-1.89-.32-1.97-.21-.07-.74-.11-1.58-.11-.36,0-.54-.11-.54-.32,0-.24.2-.36.59-.36h15.48v.31l.04.67c.06.45.18,1.78.36,4.01.03.15.04.33.04.54,0,.39-.1.58-.32.58-.27,0-.47-.3-.58-.91-.42-2.29-1.22-3.64-2.39-4.03-.66-.21-2.22-.32-4.69-.32h-2.3v8.46h1.08c1.92,0,3.1-.16,3.55-.48.45-.32.75-1.18.9-2.6.09-.84.27-1.27.54-1.27.3,0,.45.3.45.91,0,.36-.02.92-.07,1.67-.05.75-.07,1.33-.07,1.72,0,1.96.03,3.3.1,4.03.02.24.03.44.03.59,0,.48-.15.72-.45.72-.27,0-.45-.38-.54-1.13-.18-1.63-.48-2.6-.89-2.92-.42-.32-1.59-.48-3.53-.48h-1.12v9.78c4.42-.03,7.01-.15,7.8-.36,1.2-.33,1.91-1.78,2.12-4.35.03-.45.2-.68.5-.68s.45.42.45,1.24Z" style="fill: #010101; stroke-width: 0px;"/>
      <path d="M228.23,307.58c0,4.5-1.35,8.3-4.05,11.41-2.7,3.11-6.01,4.66-9.94,4.66-4.16,0-7.67-1.58-10.5-4.73-2.84-3.15-4.25-7.04-4.25-11.66s1.37-8.56,4.1-11.57c2.73-3,6.22-4.5,10.48-4.5,4.01,0,7.38,1.57,10.09,4.71s4.07,7.03,4.07,11.68ZM223.16,307.8c0-5.54-1.13-9.85-3.4-12.94-1.42-1.94-3.39-2.91-5.93-2.91s-4.29.74-5.61,2.22c-2.44,2.72-3.67,7.16-3.67,13.3,0,4.87.85,8.66,2.56,11.35,1.7,2.69,4.1,4.04,7.17,4.04,2.87,0,5.02-1.27,6.47-3.81,1.6-2.81,2.4-6.57,2.4-11.26Z" style="fill: #010101; stroke-width: 0px;"/>
      <path d="M247.74,307.99c0,.39-.11.58-.32.58-.3,0-.5-.29-.59-.88-.21-1.63-.65-2.78-1.31-3.45-.66-.68-2.33-1.01-5-1.01-.78,0-1.8.02-3.06.05v8.6h1.03c1.98,0,3.19-.18,3.64-.54s.75-1.43.9-3.21c.03-.39.18-.59.45-.59.3,0,.45.24.45.72,0,.24-.02.57-.05.99s-.04,1.44-.04,3.06c0,.27.01.72.04,1.35s.05,1.43.05,2.39v.18c0,.57-.17.86-.5.86-.24,0-.39-.24-.45-.72-.21-1.82-.5-2.9-.85-3.23-.36-.33-1.44-.49-3.24-.49h-1.44v8.74c-.06.57.15.92.62,1.04.15.06.61.09,1.38.09.42,0,.62.11.62.32s-.2.32-.59.32h-7.56c-.51,0-.77-.11-.77-.32,0-.24.21-.36.63-.36.94,0,1.48-.07,1.63-.2.15-.14.23-.59.23-1.38v-15.98c0-.81-.08-1.29-.23-1.43-.15-.14-.68-.22-1.58-.25-.42,0-.63-.14-.63-.41,0-.24.32-.36.95-.36h8.65c3.23.03,5.36-.03,6.38-.18l.05.45.18,2.07.23,2.34c.06.63.09.91.09.85Z" style="fill: #010101; stroke-width: 0px;"/>
      <path d="M283.59,321.74c0,1.27-1.06,1.9-3.17,1.9-2.35,0-4.2-.98-5.52-2.94-.57-.84-.94-1.66-1.11-2.44-.17-.78-.42-2.78-.75-5.97-.18-1.93-.8-3.3-1.86-4.1-1.06-.8-2.78-1.23-5.16-1.29v14.26c0,.6.48.98,1.45,1.13.27.03.97.06,2.08.09.39,0,.59.12.59.36,0,.27-.26.41-.77.41h-10.64c-.66,0-1-.14-1-.41,0-.21.44-.33,1.31-.36,1.42-.03,2.19-.21,2.31-.54.12-.15.18-.74.18-1.77v-24.99c0-1.21-.13-1.93-.38-2.17-.26-.24-1.03-.38-2.33-.41-.75,0-1.13-.14-1.13-.41,0-.3.24-.45.72-.45.09,0,.23.02.41.05l6.02.14c.6,0,1.45-.02,2.53-.06,1.21-.08,2.05-.12,2.54-.12,2.81,0,5.03.63,6.68,1.88,1.64,1.25,2.47,2.95,2.47,5.09s-.85,3.86-2.54,5.23c-1.69,1.37-3.98,2.18-6.88,2.42-.27.03-.42.08-.45.14,0,.12.15.18.45.18,3.17.54,5.35,1.66,6.54,3.34,1.19,1.68,1.98,4.71,2.38,9.1.24,2.48,1.09,3.72,2.53,3.72.45,0,.68-.09.68-.27,0-.03-.02-.06-.05-.09-.15-.33-.23-.6-.23-.81,0-.63.33-.95,1-.95.72,0,1.09.38,1.09,1.13ZM274.22,299.07c0-4.31-1.87-6.47-5.61-6.47-1,0-1.67.14-2.04.41s-.54.75-.54,1.45v11.5c2.9.03,4.99-.5,6.27-1.58,1.28-1.09,1.92-2.85,1.92-5.3Z" style="fill: #010101; stroke-width: 0px;"/>
      <path d="M304.87,312.94c0,2.92-.95,5.4-2.85,7.43-1.9,2.03-4.23,3.05-6.97,3.05-2.93,0-5.4-1.03-7.4-3.09-2.01-2.06-3.01-4.58-3.01-7.57s.96-5.64,2.88-7.61c1.92-1.97,4.37-2.96,7.36-2.96s5.21,1.03,7.13,3.09c1.92,2.06,2.87,4.62,2.87,7.66ZM300.61,313.08c0-3.49-.71-6.25-2.13-8.26-.91-1.29-2.16-1.94-3.76-1.94-2.2,0-3.8,1.21-4.8,3.61-.7,1.69-1.04,3.82-1.04,6.41,0,3.1.54,5.53,1.63,7.27,1.09,1.75,2.6,2.62,4.53,2.62,3.71,0,5.57-3.24,5.57-9.71Z" style="fill: #010101; stroke-width: 0px;"/>
      <path d="M321.57,317.29c0,1.68-.72,3.12-2.17,4.33s-3.2,1.8-5.25,1.8c-1.54,0-3.12-.47-4.75-1.41-.18-.06-.3-.09-.36-.09-.18,0-.29.14-.32.43-.03.28-.08.53-.14.75-.06.21-.21.32-.45.32-.3,0-.45-.15-.45-.45,0-.06.03-.51.09-1.36.06-.84.09-1.57.09-2.17v-2.31c0-.57.15-.86.45-.86s.53.47.68,1.4c.57,3.32,2.35,4.98,5.34,4.98,2.53,0,3.8-1.26,3.8-3.79,0-1.11-.3-2.01-.91-2.7-.6-.69-1.78-1.47-3.53-2.34-2.29-1.14-3.76-2.04-4.39-2.7-.81-.87-1.22-1.95-1.22-3.25,0-1.65.6-3.01,1.81-4.08s2.73-1.6,4.57-1.6c1.15,0,2.37.35,3.67,1.04.15.09.27.14.36.14.21,0,.35-.22.41-.66s.24-.66.54-.66.45.15.45.45c0,.06-.02.18-.04.36-.06.48-.09,1.1-.09,1.86,0,.45.04,1.27.14,2.44.03.12.04.26.04.41,0,.36-.12.54-.36.54-.27,0-.47-.27-.59-.81-.27-1.32-.82-2.37-1.65-3.16s-1.8-1.19-2.92-1.19c-2.17,0-3.26,1.16-3.26,3.47,0,1.02.29,1.86.86,2.52.3.36.63.65,1,.86.36.21,1.42.74,3.17,1.58,1.96.96,3.35,1.89,4.17,2.77.81.89,1.22,1.93,1.22,3.13Z" style="fill: #010101; stroke-width: 0px;"/>
      <path d="M340.76,318.24s-.02.22-.07.58c-.04.35-.07.67-.07.94v2.62c0,.27.04.58.14.91l-7.55-.14-8.65.14c-.64,0-.96-.12-.96-.36,0-.27.18-.41.54-.41.97,0,1.53-.07,1.7-.2.17-.14.25-.63.25-1.47v-15.57c0-1.24-.11-1.89-.32-1.97-.21-.07-.74-.11-1.58-.11-.36,0-.54-.11-.54-.32,0-.24.2-.36.59-.36h15.48v.31l.04.67c.06.45.18,1.78.36,4.01.03.15.04.33.04.54,0,.39-.1.58-.32.58-.27,0-.47-.3-.58-.91-.42-2.29-1.22-3.64-2.39-4.03-.66-.21-2.22-.32-4.69-.32h-2.3v8.46h1.08c1.92,0,3.1-.16,3.55-.48.45-.32.75-1.18.9-2.6.09-.84.27-1.27.54-1.27.3,0,.45.3.45.91,0,.36-.02.92-.07,1.67-.05.75-.07,1.33-.07,1.72,0,1.96.03,3.3.1,4.03.02.24.03.44.03.59,0,.48-.15.72-.45.72-.27,0-.45-.38-.54-1.13-.18-1.63-.48-2.6-.89-2.92-.42-.32-1.59-.48-3.53-.48h-1.12v9.78c4.42-.03,7.01-.15,7.8-.36,1.2-.33,1.91-1.78,2.12-4.35.03-.45.2-.68.5-.68s.45.42.45,1.24Z" style="fill: #010101; stroke-width: 0px;"/>
      <path d="M142.37,347.38s0,.19-.02.41c-.06.87-.1,1.48-.1,1.83,0,.24.02.6.07,1.06v.17c0,.16-.06.24-.19.24s-.26-.14-.39-.41l-.22-.46s-.04-.08-.07-.15c-.72.71-1.72,1.06-2.99,1.06-1.63,0-2.98-.54-4.06-1.63s-1.62-2.45-1.62-4.08.5-2.98,1.5-4.04c1-1.05,2.27-1.58,3.81-1.58,1.21,0,2.22.31,3.04.94.06.06.13.1.19.1.08,0,.15-.1.22-.31.11-.35.25-.53.41-.53.11,0,.17.06.17.19,0,.02-.02.09-.05.22-.1.55-.15,1.36-.17,2.44-.02.68-.1,1.01-.26,1.01-.13,0-.22-.12-.27-.36-.16-.86-.35-1.5-.58-1.92-.51-.91-1.36-1.37-2.54-1.37-.98,0-1.76.47-2.34,1.41-.58.94-.87,2.22-.87,3.84s.32,2.89.97,3.84c.64.94,1.51,1.42,2.61,1.42.84,0,1.53-.28,2.09-.85.55-.56.92-1.35,1.1-2.35.08-.41.18-.62.31-.62.16,0,.24.15.24.46Z" style="fill: #010101; stroke-width: 0px;"/>
      <path d="M154.61,345.55c0,1.56-.51,2.88-1.52,3.96s-2.25,1.63-3.72,1.63c-1.56,0-2.88-.55-3.95-1.65-1.07-1.1-1.61-2.44-1.61-4.04s.51-3.01,1.53-4.06c1.02-1.05,2.33-1.58,3.92-1.58s2.78.55,3.8,1.65c1.02,1.1,1.53,2.46,1.53,4.08ZM152.34,345.63c0-1.86-.38-3.33-1.13-4.41-.48-.69-1.15-1.04-2-1.04-1.17,0-2.03.64-2.56,1.93-.37.9-.55,2.04-.55,3.42,0,1.65.29,2.95.87,3.88.58.93,1.38,1.4,2.41,1.4,1.98,0,2.97-1.73,2.97-5.18Z" style="fill: #010101; stroke-width: 0px;"/>
      <path d="M166.63,340.18c0,.11-.13.17-.39.17h-.6c-.26,0-.39.16-.39.48v4.45c0,1.55-.03,2.56-.1,3-.06.45-.23.9-.51,1.35-.63,1.01-1.74,1.51-3.33,1.51-1.32,0-2.38-.3-3.16-.92-.72-.56-1.09-1.65-1.09-3.25v-5.08c0-.87-.03-1.34-.08-1.42-.06-.08-.29-.12-.71-.12-.34,0-.51-.06-.51-.19,0-.11.11-.17.34-.17h3.81c.29,0,.43.06.43.19,0,.16-.3.23-.89.22-.18,0-.28.03-.31.08-.03.06-.05.24-.05.54v5.78c0,1.57.2,2.59.6,3.06.45.53,1.12.79,2,.79,1.24,0,2.08-.51,2.54-1.54.23-.51.34-1.34.34-2.47,0,.02,0-.07,0-.26v-5.55c0-.21-.04-.34-.12-.38-.08-.05-.31-.07-.68-.07s-.55-.07-.55-.22c0-.11.1-.17.29-.17h2.73c.26,0,.39.06.39.19Z" style="fill: #010101; stroke-width: 0px;"/>
      <path d="M176.86,342.92c0,.22-.1.33-.29.33-.21,0-.32-.15-.34-.44-.05-.64-.19-1.16-.41-1.57-.31-.56-1.01-.84-2.1-.84-.16,0-.41,0-.75.02v9.71c0,.31.23.47.7.48.47.02.7.08.7.19s-.14.17-.41.17h-3.94c-.32,0-.48-.06-.48-.17s.27-.18.8-.19c.19,0,.32-.02.39-.05.13-.03.2-.12.22-.25.02-.14.02-.54.02-1.22v-8.69c-1.25-.02-2.07.11-2.45.38s-.63.91-.76,1.92c-.05.37-.15.55-.31.55-.14,0-.22-.18-.22-.55,0-.46.07-1.36.22-2.71h5.62c.5,0,1.51-.01,3.04-.04.13,0,.3-.03.51-.08l.02.5.07.85.07.99.05.43c.02.14.02.24.02.28Z" style="fill: #010101; stroke-width: 0px;"/>
      <path d="M188.48,340.18c0,.11-.13.17-.39.17h-.6c-.26,0-.39.16-.39.48v4.45c0,1.55-.03,2.56-.1,3-.06.45-.23.9-.51,1.35-.63,1.01-1.74,1.51-3.33,1.51-1.32,0-2.38-.3-3.16-.92-.72-.56-1.09-1.65-1.09-3.25v-5.08c0-.87-.03-1.34-.08-1.42-.06-.08-.29-.12-.71-.12-.34,0-.51-.06-.51-.19,0-.11.11-.17.34-.17h3.81c.29,0,.43.06.43.19,0,.16-.3.23-.89.22-.18,0-.28.03-.31.08-.03.06-.05.24-.05.54v5.78c0,1.57.2,2.59.6,3.06.45.53,1.12.79,2,.79,1.24,0,2.08-.51,2.54-1.54.23-.51.34-1.34.34-2.47,0,.02,0-.07,0-.26v-5.55c0-.21-.04-.34-.12-.38-.08-.05-.31-.07-.68-.07s-.55-.07-.55-.22c0-.11.1-.17.29-.17h2.73c.26,0,.39.06.39.19Z" style="fill: #010101; stroke-width: 0px;"/>
      <path d="M199.44,350.37c0,.52-.45.77-1.35.77s-1.57-.33-2.12-.99c-.24-.29-.4-.58-.48-.87-.08-.29-.18-.97-.29-2.04-.08-.69-.3-1.17-.66-1.44-.36-.27-.98-.42-1.86-.46v4.97c-.05.23.36.34,1.21.34.17,0,.26.06.26.17s-.11.17-.34.17h-3.89c-.45,0-.68-.05-.68-.16,0-.12.08-.18.24-.18h.34c.55,0,.82-.11.82-.34v-9.54c0-.18-.04-.29-.13-.35-.09-.06-.32-.08-.7-.08s-.57-.06-.57-.19c0-.11.11-.17.34-.17h4.56c1.08,0,1.94.22,2.6.66.65.44.98,1.02.98,1.74,0,.79-.35,1.42-1.04,1.91-.69.49-1.67.77-2.92.85,1.35.14,2.28.5,2.79,1.06s.83,1.57.98,3.03c.1.99.39,1.49.89,1.49.08,0,.12-.02.12-.07,0-.02-.02-.07-.06-.15-.04-.09-.06-.15-.06-.2,0-.3.16-.45.48-.45.35,0,.53.17.53.51ZM195.62,342.56c0-1.44-.71-2.16-2.13-2.16-.37,0-.6.04-.68.11-.09.07-.13.24-.13.52v3.94c1.96,0,2.95-.8,2.95-2.4Z" style="fill: #010101; stroke-width: 0px;"/>
      <path d="M209.02,348.38s-.01.12-.04.31-.04.36-.04.5v1.4c0,.15.02.31.07.48l-4.03-.07-4.61.07c-.34,0-.51-.06-.51-.19,0-.15.1-.22.29-.22.52,0,.82-.04.91-.11.09-.07.13-.33.13-.78v-8.3c0-.66-.06-1.01-.17-1.05-.11-.04-.39-.06-.84-.06-.19,0-.29-.06-.29-.17,0-.13.1-.19.31-.19h8.26v.17l.02.36c.03.24.1.95.19,2.14.02.08.02.17.02.29,0,.21-.06.31-.17.31-.14,0-.25-.16-.31-.48-.22-1.22-.65-1.94-1.27-2.15-.35-.11-1.19-.17-2.5-.17h-1.23v4.51h.58c1.02,0,1.65-.08,1.89-.25.24-.17.4-.63.48-1.39.05-.45.14-.68.29-.68.16,0,.24.16.24.48,0,.19-.01.49-.04.89-.02.4-.04.71-.04.92,0,1.05.02,1.76.05,2.15.01.13.02.23.02.31,0,.26-.08.39-.24.39-.14,0-.24-.2-.29-.6-.09-.87-.25-1.39-.48-1.56-.22-.17-.85-.25-1.88-.25h-.59v5.21c2.35-.02,3.74-.08,4.16-.19.64-.18,1.02-.95,1.13-2.32.02-.24.1-.36.27-.36s.24.22.24.66Z" style="fill: #010101; stroke-width: 0px;"/>
    </g>
  </g>
</svg>