<?xml version="1.0" encoding="UTF-8"?>
<svg id="b" data-name="text" xmlns="http://www.w3.org/2000/svg" xmlns:xlink="http://www.w3.org/1999/xlink" viewBox="0 0 113 92">
  <defs>
    <clipPath id="c">
      <rect width="162.53" height="89.68" style="fill: none; stroke-width: 0px;"/>
    </clipPath>
  </defs>
  <g style="clip-path: url(#c);">
    <rect x="6.78" y="5.27" width="98.38" height="83.66" rx="9.04" ry="9.04" style="fill: #c56d67; stroke-width: 0px;"/>
  </g>
  <g>
    <path d="M13.56,60.7c-.25-.15-.34-.34-.34-.69v-4.75c0-.25.2-.34.39-.2,2.5,1.62,5.49,2.4,8.23,2.4,3.97,0,5.63-1.67,5.63-3.87,0-1.86-1.13-3.28-4.85-5l-2.16-.98c-5.73-2.6-7.2-5.59-7.2-9.21,0-5.1,3.77-9.02,10.83-9.02,3.04,0,5.59.44,7.1,1.22.2.1.25.29.25.59v4.46c0,.2-.15.39-.39.2-1.76-1.03-4.31-1.57-6.96-1.57-4.17,0-5.49,1.91-5.49,3.67s1.08,3.14,4.85,4.85l1.81.78c6.08,2.74,7.79,5.78,7.79,9.51,0,5.59-4.31,9.26-11.37,9.26-3.33,0-6.22-.59-8.13-1.67Z" style="fill: #393939; stroke-width: 0px;"/>
    <path d="M56.14,46.83v10.34c0,1.08,0,1.96.1,2.94,0,.1,0,.15-.1.2-3.63,1.57-6.37,2.06-9.6,2.06-5.29,0-9.26-2.6-9.26-7.89s4.61-7.74,10.68-7.74c1.32,0,2.35.05,2.84.1v-.78c0-1.22-.64-3.87-4.85-3.87-2.3,0-4.36.49-6.08,1.32-.2.1-.39,0-.39-.24v-4.02c0-.25.1-.34.29-.44,1.91-.93,4.46-1.47,7.1-1.47,6.47,0,9.26,4.16,9.26,9.51ZM50.8,51.04c-.73-.1-1.47-.15-2.6-.15-3.77,0-5.54,1.32-5.54,3.58,0,1.81,1.27,3.53,4.75,3.53,1.23,0,2.35-.2,3.38-.59v-6.37Z" style="fill: #393939; stroke-width: 0px;"/>
    <path d="M70.4,41.83c-2.55,0-3.43,1.18-3.43,2.25s.69,1.91,3.87,3.28c5.19,2.11,7.01,4.26,7.01,7.64,0,4.65-3.63,7.35-9.21,7.35-2.79,0-5.19-.49-6.62-1.32-.2-.1-.29-.25-.29-.49v-4.41c0-.25.2-.34.34-.25,2.06,1.32,4.56,1.91,6.66,1.91,2.55,0,3.72-.98,3.72-2.35,0-1.22-.83-2.11-3.92-3.43-4.95-1.96-6.81-4.12-6.81-7.59,0-3.77,3.04-7.1,8.77-7.1,2.7,0,4.75.44,5.83.98.24.15.29.34.29.59v4.02c0,.29-.2.44-.44.29-1.47-.78-3.67-1.37-5.78-1.37Z" style="fill: #393939; stroke-width: 0px;"/>
    <path d="M90.3,41.83c-2.55,0-3.43,1.18-3.43,2.25s.69,1.91,3.87,3.28c5.19,2.11,7.01,4.26,7.01,7.64,0,4.65-3.63,7.35-9.21,7.35-2.79,0-5.19-.49-6.62-1.32-.2-.1-.29-.25-.29-.49v-4.41c0-.25.2-.34.34-.25,2.06,1.32,4.56,1.91,6.66,1.91,2.55,0,3.72-.98,3.72-2.35,0-1.22-.83-2.11-3.92-3.43-4.95-1.96-6.81-4.12-6.81-7.59,0-3.77,3.04-7.1,8.77-7.1,2.7,0,4.75.44,5.83.98.24.15.29.34.29.59v4.02c0,.29-.2.44-.44.29-1.47-.78-3.67-1.37-5.78-1.37Z" style="fill: #393939; stroke-width: 0px;"/>
  </g>
</svg>